<svg fill="none" height="588" viewBox="0 0 2536 588" width="2536" xmlns="http://www.w3.org/2000/svg" xmlns:xlink="http://www.w3.org/1999/xlink"><clipPath id="a"><rect height="225" rx="112.5" width="225" x="105" y="176"/></clipPath><clipPath id="b"><rect height="225" rx="112.5" width="227" x="360" y="176"/></clipPath><clipPath id="c"><rect height="225" rx="111.5" width="223" x="617" y="176"/></clipPath><clipPath id="d"><rect height="225" rx="112.5" width="227" x="870" y="176"/></clipPath><clipPath id="e"><rect height="225" rx="112.5" width="225" x="1127" y="176"/></clipPath><path d="m0 0h1440v588h-1440z" fill="#000"/><g clip-path="url(#a)"><circle cx="217.5" cy="288.5" fill="#00b0b1" r="112.5"/><path d="m248.317 247.64c-3.26-4.931-8.78-8.199-15.061-8.199-2.067 0-4.077.353-5.951 1.01-.988-1.723-1.569-3.721-1.569-5.897 0-6.583 5.176-11.869 11.622-11.869 1.66 0 3.125.299 4.492.898.678-.989 1.356-2.174 2.034-3.653 2.761 1.578 7.685 5.778 8.258 12.873l-5.447 8.048z" fill="#fff"/><path d="m191.753 288.856 3.386 7.095-.677-11.825z" fill="#000"/><path d="m181.105 291.605 36.063-63.43c2.881-6.607 9.369-11.175 16.869-11.175 3.613 0 7.031.997 9.864 2.892-.684 1.497-1.368 2.693-2.051 3.691-1.367-.599-2.832-.898-4.493-.898-6.445 0-11.621 5.286-11.621 11.869 0 2.176.581 4.174 1.569 5.897 1.874-.657 3.884-1.01 5.951-1.01 10.059 0 18.164 8.379 18.164 18.552 0 .426-.071.852-.152 1.34-.014.083-.029.169-.043.256h.098c-.049.349-.122.698-.196 1.047-.073.349-.146.698-.195 1.047v.1c-6.792 35.38-49.258 34.621-55.836 34.317l.043-.149-.677-11.825-2.669 4.701z" fill="#000"/><path d="m211.185 282.729-.781.598s25.977-4.289 30.079-26.132l-4.102 1.396s-1.074 16.956-25.196 24.138z" fill="#fff"/><g fill="#000"><path d="m244.682 233.457c1.295 0 2.344-1.072 2.344-2.394s-1.049-2.393-2.344-2.393c-1.294 0-2.344 1.071-2.344 2.393s1.05 2.394 2.344 2.394z"/><path d="m252.104 232.859-4.59 6.982h12.403z"/><path d="m194.462 284.126-21.673 38.177 16.255-5.405 6.095-20.947z"/><path d="m179.406 353.108h-3.456l-4.95-14.278h3.103l3.536 10.787 3.535-10.787h3.104l3.535 10.787 3.535-10.787h3.104l-4.832 14.278h-3.457l-3.378-9.767z"/><path d="m208.122 353.108h-2.75v-1.922c-1.178 1.412-2.749 2.118-4.753 2.118-1.493 0-2.71-.432-3.692-1.255-.982-.824-1.454-1.962-1.454-3.374s.511-2.471 1.571-3.138c1.022-.706 2.436-1.059 4.204-1.059h3.889v-.549c0-1.883-1.061-2.863-3.182-2.863-1.336 0-2.711.47-4.125 1.451l-1.336-1.883c1.729-1.373 3.693-2.079 5.932-2.079 1.689 0 3.064.432 4.125 1.255 1.06.863 1.61 2.197 1.61 4.001v9.297zm-3.025-5.335v-1.216h-3.378c-2.16 0-3.26.667-3.26 2.04 0 .706.275 1.216.825 1.608.55.353 1.296.549 2.239.549.942 0 1.807-.274 2.514-.824.707-.509 1.06-1.216 1.06-2.157z"/><path d="m224.464 338.83v12.434c0 2.51-.668 4.433-2.043 5.688s-3.143 1.882-5.264 1.882c-2.161 0-4.085-.666-5.814-2l1.414-2.275c1.415 1.059 2.789 1.569 4.243 1.569 1.414 0 2.553-.353 3.378-1.098.825-.746 1.257-1.922 1.257-3.531v-1.843c-.432.824-1.1 1.53-1.925 2-.825.51-1.767.746-2.789.746-1.885 0-3.457-.667-4.674-2.001-1.218-1.333-1.847-2.981-1.847-4.942s.629-3.609 1.847-4.942c1.217-1.334 2.789-2.001 4.674-2.001 1.886 0 3.418.785 4.596 2.354v-2.119h2.947zm-11.157 6.59c0 1.176.354 2.196 1.1 3.02.707.863 1.689 1.255 2.946 1.255 1.218 0 2.24-.392 2.986-1.216s1.139-1.843 1.139-3.059-.393-2.275-1.139-3.099c-.786-.863-1.768-1.255-2.986-1.255-1.217 0-2.199.431-2.906 1.333-.786.824-1.14 1.844-1.14 3.021z"/><path d="m232.006 341.223v7.256c0 .667.196 1.216.55 1.609.353.392.864.588 1.492.588.629 0 1.257-.314 1.847-.942l1.217 2.119c-1.06.941-2.239 1.412-3.496 1.412-1.296 0-2.357-.432-3.26-1.334-.904-.902-1.375-2.079-1.375-3.569v-7.139h-1.807v-2.432h1.807v-4.433h3.025v4.472h3.771v2.432h-3.771z"/><path d="m251.098 353.108h-2.75v-1.922c-1.179 1.412-2.75 2.118-4.753 2.118-1.493 0-2.711-.432-3.693-1.256-.982-.823-1.453-1.961-1.453-3.373s.51-2.471 1.571-3.138c1.021-.706 2.436-1.059 4.203-1.059h3.889v-.549c0-1.883-1.06-2.863-3.182-2.863-1.335 0-2.71.47-4.124 1.451l-1.336-1.883c1.729-1.373 3.693-2.079 5.932-2.079 1.689 0 3.064.432 4.124 1.255 1.061.863 1.611 2.197 1.611 4.001v9.297zm-3.025-5.335v-1.216h-3.378c-2.161 0-3.261.667-3.261 2.04 0 .706.275 1.216.825 1.608.55.353 1.296.549 2.239.549s1.807-.275 2.514-.824c.707-.51 1.061-1.216 1.061-2.157z"/><path d="m254.947 335.966c-.393-.392-.55-.823-.55-1.333s.196-.981.55-1.334c.393-.392.825-.549 1.336-.549.51 0 .982.196 1.335.549.393.392.55.824.55 1.334s-.196.98-.55 1.333c-.353.353-.825.55-1.335.55-.511.039-.943-.157-1.336-.55zm2.828 17.142h-3.024v-14.278h3.024z"/><path d="m264.06 353.108h-3.024v-19.927h3.024z"/></g></g><g clip-path="url(#b)"><ellipse cx="473.5" cy="288.5" fill="#fff" rx="113.5" ry="112.5"/><path d="m504.591 247.64c-3.289-4.931-8.858-8.199-15.195-8.199-2.086 0-4.113.353-6.004 1.01-.996-1.723-1.583-3.721-1.583-5.897 0-6.583 5.222-11.869 11.725-11.869 1.675 0 3.153.299 4.532.898.684-.989 1.368-2.174 2.052-3.653 2.786 1.578 7.754 5.778 8.332 12.873l-5.496 8.048z" fill="#fff"/><path d="m447.524 288.856 3.416 7.095-.683-11.825z" fill="#000"/><path d="m436.782 291.605 36.383-63.43c2.907-6.607 9.452-11.175 17.019-11.175 3.646 0 7.094.997 9.951 2.892-.689 1.497-1.379 2.693-2.069 3.691-1.379-.599-2.857-.898-4.532-.898-6.503 0-11.725 5.286-11.725 11.869 0 2.176.586 4.174 1.583 5.897 1.891-.657 3.918-1.01 6.004-1.01 10.148 0 18.326 8.379 18.326 18.552 0 .426-.072.852-.154 1.34-.014.083-.029.169-.043.256h.098c-.049.349-.123.698-.197 1.047s-.147.698-.197 1.047v.1c-6.853 35.38-49.696 34.621-56.333 34.317l.044-.149-.683-11.825-2.693 4.701z" fill="#000"/><path d="m467.129 282.729-.789.598s26.209-4.289 30.347-26.132l-4.138 1.396s-1.084 16.956-25.42 24.138z" fill="#fff"/><g fill="#000"><path d="m500.924 233.457c1.306 0 2.364-1.072 2.364-2.394s-1.058-2.393-2.364-2.393-2.365 1.071-2.365 2.393 1.059 2.394 2.365 2.394z"/><path d="m508.412 232.859-4.631 6.982h12.513z"/><path d="m450.257 284.126-21.866 38.177 16.4-5.405 6.149-20.947z"/><path d="m435.068 353.108h-3.488l-4.993-14.278h3.131l3.566 10.787 3.567-10.787h3.131l3.567 10.787 3.567-10.787h3.131l-4.875 14.278h-3.487l-3.409-9.767z"/><path d="m464.039 353.108h-2.774v-1.922c-1.189 1.412-2.775 2.118-4.796 2.118-1.506 0-2.734-.432-3.725-1.255-.991-.824-1.467-1.962-1.467-3.374s.516-2.471 1.586-3.138c1.03-.706 2.457-1.059 4.24-1.059h3.924v-.549c0-1.883-1.07-2.863-3.21-2.863-1.348 0-2.735.47-4.162 1.451l-1.347-1.883c1.744-1.373 3.725-2.079 5.984-2.079 1.704 0 3.091.432 4.162 1.255 1.07.863 1.624 2.197 1.624 4.001v9.297zm-3.052-5.335v-1.216h-3.408c-2.18 0-3.29.667-3.29 2.04 0 .706.278 1.216.833 1.608.554.353 1.307.549 2.259.549.951 0 1.823-.274 2.536-.824.713-.509 1.07-1.216 1.07-2.157z"/><path d="m480.525 338.83v12.434c0 2.51-.673 4.433-2.06 5.688s-3.171 1.882-5.311 1.882c-2.18 0-4.122-.666-5.866-2l1.427-2.275c1.427 1.059 2.814 1.569 4.28 1.569 1.427 0 2.577-.353 3.409-1.098.832-.746 1.268-1.922 1.268-3.531v-1.843c-.436.824-1.11 1.53-1.942 2-.832.51-1.783.746-2.814.746-1.902 0-3.487-.667-4.716-2.001-1.229-1.333-1.863-2.981-1.863-4.942s.634-3.609 1.863-4.942c1.229-1.334 2.814-2.001 4.716-2.001 1.903 0 3.448.785 4.637 2.354v-2.119h2.972zm-11.255 6.59c0 1.176.357 2.196 1.11 3.02.713.863 1.704 1.255 2.972 1.255 1.229 0 2.259-.392 3.012-1.216s1.149-1.843 1.149-3.059-.396-2.275-1.149-3.099c-.792-.863-1.783-1.255-3.012-1.255-1.228 0-2.219.431-2.933 1.333-.792.824-1.149 1.844-1.149 3.021z"/><path d="m488.135 341.223v7.256c0 .667.198 1.216.554 1.609.357.392.872.588 1.506.588s1.269-.314 1.863-.942l1.229 2.119c-1.07.941-2.259 1.412-3.528 1.412-1.307 0-2.377-.432-3.289-1.334s-1.387-2.079-1.387-3.569v-7.139h-1.823v-2.432h1.823v-4.433h3.052v4.472h3.804v2.432h-3.804z"/><path d="m507.396 353.108h-2.774v-1.922c-1.189 1.412-2.774 2.118-4.795 2.118-1.506 0-2.735-.432-3.726-1.256-.99-.823-1.466-1.961-1.466-3.373s.515-2.471 1.585-3.138c1.031-.706 2.457-1.059 4.241-1.059h3.923v-.549c0-1.883-1.07-2.863-3.21-2.863-1.347 0-2.734.47-4.161 1.451l-1.348-1.883c1.744-1.373 3.726-2.079 5.985-2.079 1.704 0 3.091.432 4.161 1.255 1.07.863 1.625 2.197 1.625 4.001v9.297zm-3.051-5.335v-1.216h-3.409c-2.179 0-3.289.667-3.289 2.04 0 .706.277 1.216.832 1.608.555.353 1.308.549 2.259.549s1.823-.275 2.537-.824c.713-.51 1.07-1.216 1.07-2.157z"/><path d="m511.28 335.966c-.397-.392-.555-.823-.555-1.333s.198-.981.555-1.334c.396-.392.832-.549 1.347-.549.516 0 .991.196 1.348.549.396.392.555.824.555 1.334s-.199.98-.555 1.333c-.357.353-.832.55-1.348.55-.515.039-.951-.157-1.347-.55zm2.853 17.142h-3.051v-14.278h3.051z"/><path d="m520.474 353.108h-3.051v-19.927h3.051z"/></g></g><g clip-path="url(#c)"><ellipse cx="728.5" cy="288.5" fill="#fd5765" rx="111.5" ry="112.5"/><path d="m759.043 247.64c-3.231-4.931-8.702-8.199-14.927-8.199-2.049 0-4.041.353-5.898 1.01-.979-1.723-1.555-3.721-1.555-5.897 0-6.583 5.13-11.869 11.518-11.869 1.646 0 3.097.299 4.453.898.671-.989 1.343-2.174 2.015-3.653 2.737 1.578 7.617 5.778 8.185 12.873l-5.399 8.048z" fill="#fff"/><path d="m702.982 288.856 3.356 7.095-.671-11.825z" fill="#000"/><path d="m692.429 291.605 35.742-63.43c2.855-6.607 9.286-11.175 16.719-11.175 3.581 0 6.969.997 9.776 2.892-.678 1.497-1.355 2.693-2.033 3.691-1.355-.599-2.807-.898-4.452-.898-6.388 0-11.518 5.286-11.518 11.869 0 2.176.576 4.174 1.555 5.897 1.857-.657 3.849-1.01 5.898-1.01 9.969 0 18.003 8.379 18.003 18.552 0 .426-.071.852-.152 1.34-.013.083-.028.169-.042.256h.097c-.048.349-.121.698-.193 1.047-.073.349-.146.698-.194 1.047v.1c-6.732 35.38-48.821 34.621-55.34 34.317l.043-.149-.671-11.825-2.646 4.701z" fill="#000"/><path d="m722.241 282.729-.774.598s25.746-4.289 29.811-26.132l-4.065 1.396s-1.065 16.956-24.972 24.138z" fill="#fff"/><g fill="#000"><path clip-rule="evenodd" d="m754.495 231.037c-.567.174-1.093.571-1.49 1.067-.347.433-.937.685-1.448.471-.507-.212-.761-.804-.462-1.267.636-.985 1.616-1.843 2.813-2.21 1.409-.432 2.953-.136 4.359 1.11.411.364.353 1.007-.062 1.369-.418.365-1.049.309-1.486-.03-.855-.664-1.623-.694-2.224-.51z" fill-rule="evenodd"/><path d="m762.797 232.859-4.549 6.982h12.292z"/><path d="m711.631 282.744-34.55 26.897 16.945 1.249 13.659-16.981z"/><path d="m690.745 353.108h-3.426l-4.906-14.278h3.076l3.504 10.787 3.504-10.787h3.076l3.504 10.787 3.504-10.787h3.076l-4.789 14.278h-3.426l-3.349-9.767z"/><path d="m719.206 353.108h-2.726v-1.922c-1.168 1.412-2.725 2.118-4.711 2.118-1.479 0-2.686-.432-3.66-1.255-.973-.824-1.44-1.962-1.44-3.374s.506-2.471 1.557-3.138c1.013-.706 2.414-1.059 4.166-1.059h3.855v-.549c0-1.883-1.052-2.863-3.154-2.863-1.324 0-2.686.47-4.088 1.451l-1.324-1.883c1.713-1.373 3.66-2.079 5.879-2.079 1.674 0 3.037.432 4.088 1.255 1.051.863 1.596 2.197 1.596 4.001v9.297zm-2.998-5.335v-1.216h-3.349c-2.141 0-3.231.667-3.231 2.04 0 .706.272 1.216.817 1.608.546.353 1.285.549 2.22.549.934 0 1.791-.274 2.491-.824.701-.509 1.052-1.216 1.052-2.157z"/><path d="m735.402 338.83v12.434c0 2.51-.662 4.433-2.025 5.688s-3.115 1.882-5.217 1.882c-2.141 0-4.049-.666-5.762-2l1.402-2.275c1.401 1.059 2.764 1.569 4.204 1.569 1.402 0 2.531-.353 3.349-1.098.817-.746 1.245-1.922 1.245-3.531v-1.843c-.428.824-1.09 1.53-1.907 2-.818.51-1.752.746-2.765.746-1.868 0-3.426-.667-4.633-2.001-1.207-1.333-1.829-2.981-1.829-4.942s.622-3.609 1.829-4.942c1.207-1.334 2.765-2.001 4.633-2.001 1.869 0 3.388.785 4.556 2.354v-2.119h2.92zm-11.057 6.59c0 1.176.35 2.196 1.09 3.02.701.863 1.674 1.255 2.92 1.255 1.207 0 2.219-.392 2.959-1.216.739-.824 1.129-1.843 1.129-3.059s-.39-2.275-1.129-3.099c-.779-.863-1.752-1.255-2.959-1.255s-2.181.431-2.881 1.333c-.779.824-1.129 1.844-1.129 3.021z"/><path d="m742.877 341.223v7.256c0 .667.194 1.216.545 1.609.35.392.856.588 1.479.588s1.246-.314 1.83-.942l1.207 2.119c-1.051.941-2.219 1.412-3.465 1.412-1.285 0-2.336-.432-3.232-1.334-.895-.902-1.362-2.079-1.362-3.569v-7.139h-1.791v-2.432h1.791v-4.433h2.998v4.472h3.737v2.432h-3.737z"/><path d="m761.799 353.108h-2.725v-1.922c-1.168 1.412-2.726 2.118-4.711 2.118-1.48 0-2.687-.432-3.66-1.256-.973-.823-1.44-1.961-1.44-3.373s.506-2.471 1.557-3.138c1.012-.706 2.414-1.059 4.166-1.059h3.854v-.549c0-1.883-1.051-2.863-3.153-2.863-1.324 0-2.687.47-4.088 1.451l-1.324-1.883c1.713-1.373 3.66-2.079 5.879-2.079 1.674 0 3.037.432 4.088 1.255 1.051.863 1.596 2.197 1.596 4.001v9.297zm-2.998-5.335v-1.216h-3.348c-2.141 0-3.232.667-3.232 2.04 0 .706.273 1.216.818 1.608.545.353 1.285.549 2.219.549.935 0 1.791-.275 2.492-.824.701-.51 1.051-1.216 1.051-2.157z"/><path d="m765.614 335.966c-.389-.392-.545-.823-.545-1.333s.195-.981.545-1.334c.389-.392.818-.549 1.324-.549s.973.196 1.324.549c.389.392.545.824.545 1.334s-.195.98-.545 1.333c-.351.353-.818.55-1.324.55-.506.039-.935-.157-1.324-.55zm2.803 17.142h-2.998v-14.278h2.998z"/><path d="m774.647 353.108h-2.998v-19.927h2.998z"/></g></g><g clip-path="url(#d)"><ellipse cx="983.5" cy="288.5" fill="#55b9d7" rx="113.5" ry="112.5"/><path d="m1014.59 247.64c-3.29-4.931-8.86-8.199-15.194-8.199-2.086 0-4.113.353-6.004 1.01-.996-1.723-1.583-3.721-1.583-5.897 0-6.583 5.222-11.869 11.721-11.869 1.68 0 3.16.299 4.54.898.68-.989 1.36-2.174 2.05-3.653 2.78 1.578 7.75 5.778 8.33 12.873l-5.5 8.048z" fill="#fff"/><path d="m957.524 288.856 3.416 7.095-.683-11.825z" fill="#000"/><path d="m946.782 291.605 36.383-63.43c2.907-6.607 9.452-11.175 17.015-11.175 3.65 0 7.1.997 9.96 2.892-.69 1.497-1.38 2.693-2.07 3.691-1.38-.599-2.86-.898-4.54-.898-6.499 0-11.721 5.286-11.721 11.869 0 2.176.586 4.174 1.583 5.897 1.891-.657 3.918-1.01 6.004-1.01 10.144 0 18.324 8.379 18.324 18.552 0 .426-.07.852-.15 1.34-.02.083-.03.169-.05.256h.1c-.05.349-.12.698-.19 1.047-.08.349-.15.698-.2 1.047v.1c-6.85 35.38-49.697 34.621-56.334 34.317l.044-.149-.683-11.825-2.693 4.701z" fill="#000"/><path d="m977.129 282.729-.789.598s26.21-4.289 30.35-26.132l-4.14 1.396s-1.08 16.956-25.421 24.138z" fill="#fff"/><g fill="#000"><path d="m1010.92 233.457c1.31 0 2.37-1.072 2.37-2.394s-1.06-2.393-2.37-2.393c-1.3 0-2.36 1.071-2.36 2.393s1.06 2.394 2.36 2.394z"/><path d="m1018.41 232.859-4.63 6.982h12.51z"/><path d="m960.257 284.126-21.866 38.177 16.4-5.405 6.149-20.947z"/><path d="m945.068 353.108h-3.488l-4.993-14.278h3.131l3.566 10.787 3.567-10.787h3.131l3.567 10.787 3.567-10.787h3.131l-4.875 14.278h-3.487l-3.409-9.767z"/><path d="m974.039 353.108h-2.774v-1.922c-1.189 1.412-2.775 2.118-4.796 2.118-1.506 0-2.734-.432-3.725-1.255-.991-.824-1.467-1.962-1.467-3.374s.516-2.471 1.586-3.138c1.03-.706 2.457-1.059 4.24-1.059h3.924v-.549c0-1.883-1.07-2.863-3.21-2.863-1.348 0-2.735.47-4.162 1.451l-1.347-1.883c1.744-1.373 3.725-2.079 5.984-2.079 1.704 0 3.091.432 4.162 1.255 1.07.863 1.624 2.197 1.624 4.001v9.297zm-3.052-5.335v-1.216h-3.408c-2.18 0-3.29.667-3.29 2.04 0 .706.278 1.216.833 1.608.554.353 1.307.549 2.259.549.951 0 1.823-.274 2.536-.824.713-.509 1.07-1.216 1.07-2.157z"/><path d="m990.525 338.83v12.434c0 2.51-.673 4.433-2.06 5.688s-3.171 1.882-5.311 1.882c-2.18 0-4.122-.666-5.866-2l1.427-2.275c1.427 1.059 2.814 1.569 4.28 1.569 1.427 0 2.577-.353 3.409-1.098.832-.746 1.268-1.922 1.268-3.531v-1.843c-.436.824-1.11 1.53-1.942 2-.832.51-1.783.746-2.814.746-1.902 0-3.487-.667-4.716-2.001-1.229-1.333-1.863-2.981-1.863-4.942s.634-3.609 1.863-4.942c1.229-1.334 2.814-2.001 4.716-2.001 1.903 0 3.448.785 4.637 2.354v-2.119h2.972zm-11.255 6.59c0 1.176.357 2.196 1.11 3.02.713.863 1.704 1.255 2.972 1.255 1.229 0 2.259-.392 3.012-1.216s1.149-1.843 1.149-3.059-.396-2.275-1.149-3.099c-.792-.863-1.783-1.255-3.012-1.255-1.228 0-2.219.431-2.933 1.333-.792.824-1.149 1.844-1.149 3.021z"/><path d="m998.135 341.223v7.256c0 .667.198 1.216.554 1.609.357.392.872.588 1.511.588.63 0 1.26-.314 1.86-.942l1.23 2.119c-1.07.941-2.26 1.412-3.531 1.412-1.307 0-2.377-.432-3.289-1.334s-1.387-2.079-1.387-3.569v-7.139h-1.823v-2.432h1.823v-4.433h3.052v4.472h3.805v2.432h-3.805z"/><path d="m1017.4 353.108h-2.78v-1.922c-1.19 1.412-2.77 2.118-4.79 2.118-1.51 0-2.74-.432-3.73-1.256-.99-.823-1.47-1.961-1.47-3.373s.52-2.471 1.59-3.138c1.03-.706 2.46-1.059 4.24-1.059h3.92v-.549c0-1.883-1.07-2.863-3.21-2.863-1.34 0-2.73.47-4.16 1.451l-1.34-1.883c1.74-1.373 3.72-2.079 5.98-2.079 1.7 0 3.09.432 4.16 1.255 1.07.863 1.63 2.197 1.63 4.001v9.297zm-3.06-5.335v-1.216h-3.4c-2.18 0-3.29.667-3.29 2.04 0 .706.27 1.216.83 1.608.55.353 1.31.549 2.26.549s1.82-.275 2.53-.824c.72-.51 1.07-1.216 1.07-2.157z"/><path d="m1021.28 335.966c-.4-.392-.56-.823-.56-1.333s.2-.981.56-1.334c.4-.392.83-.549 1.35-.549.51 0 .99.196 1.34.549.4.392.56.824.56 1.334s-.2.98-.56 1.333c-.35.353-.83.55-1.34.55-.52.039-.95-.157-1.35-.55zm2.85 17.142h-3.05v-14.278h3.05z"/><path d="m1030.47 353.108h-3.05v-19.927h3.05z"/></g></g><g clip-path="url(#e)"><circle cx="1239.5" cy="288.5" fill="#ffdbdb" r="112.5"/><path d="m1270.32 247.64c-3.26-4.931-8.78-8.199-15.06-8.199-2.07 0-4.08.353-5.95 1.01-.99-1.723-1.57-3.721-1.57-5.897 0-6.583 5.17-11.869 11.62-11.869 1.66 0 3.12.299 4.49.898.68-.989 1.36-2.174 2.03-3.653 2.76 1.578 7.69 5.778 8.26 12.873l-5.45 8.048z" fill="#fff"/><path d="m1213.75 288.856 3.39 7.095-.68-11.825z" fill="#000"/><path d="m1203.11 291.605 36.06-63.43c2.88-6.607 9.37-11.175 16.87-11.175 3.61 0 7.03.997 9.86 2.892-.68 1.497-1.37 2.693-2.05 3.691-1.37-.599-2.83-.898-4.49-.898-6.45 0-11.62 5.286-11.62 11.869 0 2.176.58 4.174 1.56 5.897 1.88-.657 3.89-1.01 5.96-1.01 10.05 0 18.16 8.379 18.16 18.552 0 .426-.07.852-.15 1.34-.02.083-.03.169-.04.256h.09c-.05.349-.12.698-.19 1.047-.08.349-.15.698-.2 1.047v.1c-6.79 35.38-49.26 34.621-55.83 34.317l.04-.149-.68-11.825-2.67 4.701z" fill="#000"/><path d="m1233.18 282.729-.78.598s25.98-4.289 30.08-26.132l-4.1 1.396s-1.07 16.956-25.2 24.138z" fill="#fff"/><g fill="#000"><path d="m1266.68 233.457c1.3 0 2.35-1.072 2.35-2.394s-1.05-2.393-2.35-2.393c-1.29 0-2.34 1.071-2.34 2.393s1.05 2.394 2.34 2.394z"/><path d="m1274.1 232.859-4.59 6.982h12.41z"/><path d="m1216.46 284.126-21.67 38.177 16.25-5.405 6.1-20.947z"/><path d="m1201.41 353.108h-3.46l-4.95-14.278h3.1l3.54 10.787 3.53-10.787h3.11l3.53 10.787 3.54-10.787h3.1l-4.83 14.278h-3.46l-3.38-9.767z"/><path d="m1230.12 353.108h-2.75v-1.922c-1.18 1.412-2.75 2.118-4.75 2.118-1.49 0-2.71-.432-3.69-1.255-.99-.824-1.46-1.962-1.46-3.374s.51-2.471 1.57-3.138c1.03-.706 2.44-1.059 4.21-1.059h3.89v-.549c0-1.883-1.06-2.863-3.19-2.863-1.33 0-2.71.47-4.12 1.451l-1.34-1.883c1.73-1.373 3.7-2.079 5.94-2.079 1.69 0 3.06.432 4.12 1.255 1.06.863 1.61 2.197 1.61 4.001v9.297zm-3.02-5.335v-1.216h-3.38c-2.16 0-3.26.667-3.26 2.04 0 .706.27 1.216.82 1.608.55.353 1.3.549 2.24.549.95 0 1.81-.274 2.52-.824.7-.509 1.06-1.216 1.06-2.157z"/><path d="m1246.46 338.83v12.434c0 2.51-.66 4.433-2.04 5.688-1.37 1.255-3.14 1.882-5.26 1.882-2.16 0-4.09-.666-5.82-2l1.42-2.275c1.41 1.059 2.79 1.569 4.24 1.569 1.41 0 2.55-.353 3.38-1.098.82-.746 1.26-1.922 1.26-3.531v-1.843c-.44.824-1.1 1.53-1.93 2-.82.51-1.77.746-2.79.746-1.88 0-3.46-.667-4.67-2.001-1.22-1.333-1.85-2.981-1.85-4.942s.63-3.609 1.85-4.942c1.21-1.334 2.79-2.001 4.67-2.001 1.89 0 3.42.785 4.6 2.354v-2.119h2.94zm-11.15 6.59c0 1.176.35 2.196 1.1 3.02.7.863 1.69 1.255 2.94 1.255 1.22 0 2.24-.392 2.99-1.216s1.14-1.843 1.14-3.059-.39-2.275-1.14-3.099c-.79-.863-1.77-1.255-2.99-1.255-1.21 0-2.2.431-2.9 1.333-.79.824-1.14 1.844-1.14 3.021z"/><path d="m1254.01 341.223v7.256c0 .667.19 1.216.55 1.609.35.392.86.588 1.49.588s1.26-.314 1.84-.942l1.22 2.119c-1.06.941-2.24 1.412-3.49 1.412-1.3 0-2.36-.432-3.26-1.334-.91-.902-1.38-2.079-1.38-3.569v-7.139h-1.81v-2.432h1.81v-4.433h3.03v4.472h3.77v2.432h-3.77z"/><path d="m1273.1 353.108h-2.75v-1.922c-1.18 1.412-2.75 2.118-4.76 2.118-1.49 0-2.71-.432-3.69-1.256-.98-.823-1.45-1.961-1.45-3.373s.51-2.471 1.57-3.138c1.02-.706 2.44-1.059 4.2-1.059h3.89v-.549c0-1.883-1.06-2.863-3.18-2.863-1.34 0-2.71.47-4.12 1.451l-1.34-1.883c1.73-1.373 3.69-2.079 5.93-2.079 1.69 0 3.07.432 4.13 1.255 1.06.863 1.61 2.197 1.61 4.001v9.297zm-3.03-5.335v-1.216h-3.38c-2.16 0-3.26.667-3.26 2.04 0 .706.28 1.216.83 1.608.55.353 1.3.549 2.24.549s1.81-.275 2.51-.824c.71-.51 1.06-1.216 1.06-2.157z"/><path d="m1276.95 335.966c-.4-.392-.55-.823-.55-1.333s.19-.981.55-1.334c.39-.392.82-.549 1.33-.549s.98.196 1.34.549c.39.392.55.824.55 1.334s-.2.98-.55 1.333c-.36.353-.83.55-1.34.55-.51.039-.94-.157-1.33-.55zm2.83 17.142h-3.03v-14.278h3.03z"/><path d="m1286.06 353.108h-3.02v-19.927h3.02z"/></g></g></svg>