<svg clip-rule="evenodd" fill-rule="evenodd" height="210mm" image-rendering="optimizeQuality" shape-rendering="geometricPrecision" text-rendering="geometricPrecision" viewBox="0 0 297 210" width="297mm" xmlns="http://www.w3.org/2000/svg"><g fill="#dfdfdf"><path d="m36.1088 140.485h.8572v-7.805h-.8572z"/><path d="m52.5124 140.485h.8573v-7.8051h-.8571m-15.1811 7.8028c0 .5139-.4185.9305-.9349.9305-.5165 0-.935-.4166-.935-.9305 0-.5138.4185-.9304.935-.9304.5164 0 .9349.4166.9349.9304z"/><path d="m53.9511 140.483c0 .5139-.4185.9305-.935.9305-.5164 0-.9349-.4166-.9349-.9305 0-.5138.4185-.9304.9349-.9304.5165 0 .935.4166.935.9304z"/></g><path d="m44.8456 132.607-18.2336-2.9335s.5314 5.867 18.2336 5.867c17.7023 0 18.2336-5.867 18.2336-5.867l-18.2335 2.9335z" fill="#d23c2b"/><path d="m63.0791 129.466c0 2.3767-8.1631 4.3033-18.2335 4.3033-10.0699 0-18.2336-1.9266-18.2336-4.3033 0-2.3759 8.1637-4.3023 18.2336-4.3023 10.0702 0 18.2333 1.9266 18.2333 4.3029z" fill="#de4d33"/><path d="m63.0791 129.466c0 2.3767-8.1631 4.3033-18.2335 4.3033-10.0699 0-18.2336-1.9266-18.2336-4.3033 0-2.3759 8.1637-4.3023 18.2336-4.3023 10.0702 0 18.2333 1.9266 18.2333 4.3029z" fill="#de4d33"/><path d="m53.0908 121.178c-1.479-2.9823-4.5653-5.0342-8.1337-5.0342s-6.6543 2.0519-8.133 5.0342c-.5959 1.2018-.9311 2.5543-.9311 3.985 0 1.3198.2849 2.5733.7967 3.7029 2.4816.2985 5.2915.4669 8.2676.4669 2.9763 0 5.786-.1684 8.2675-.4669.5121-1.1296.7971-2.3831.7971-3.7029 0-1.4307-.3354-2.7832-.9311-3.985z" fill="#9fd6e4"/><path d="m34.6315 125.902c-.0101-.1166-.018-.2339-.0236-.3518-.0065-.144-.0104-.2886-.0104-.4339 0-1.431.3356-2.7838.9315-3.9856l.0173-.0345.0012-.0019.0068-.0135.0049-.0096.0028-.0058c.1624-.3202.3442-.6292.5426-.9268.5202-.7814 1.1595-1.477 1.8923-2.0619.3328.099.6541.2069.9643.3227-.8818.7748-1.6112 1.7179-2.1371 2.7786-.5959 1.2018-.9311 2.5543-.9311 3.985 0 .1855.0056.3696.0167.5523-.4379.0582-.8637.1205-1.2782.1867z" fill="#fff"/><path d="m36.501 128.941c-.3754-.0378-.7444-.0786-1.1064-.1221-.4093-.9032-.6735-1.8851-.7631-2.9169.4145-.0662.8403-.1285 1.2782-.1867.0647 1.066.3155 2.0821.7205 3.0162z" fill="#de4d33"/><path d="m30.9287 141.413 3.9363-6.703-2.1435.3609.4755-.7714c.855.2328 1.8209.4441 2.9118.6236v.7819c-.1098.0012-.2191.0019-.3279.0019l-2.1049 5.2764-2.7471.4297m6.0371-5.7311v-.6282c.9257.1304 1.9322.2385 3.0306.3196-1.0071.1681-2.0316.2662-3.0306.3086z" fill="#fff"/><path d="m36.1088 135.705v-.7819c.2771.0456.5637.0893.8572.1306v.6282c-.288.0122-.5746.0198-.8572.0231z" fill="#dfdfdf"/><path d="m39.9966 135.373c-1.0984-.0811-2.1049-.1892-3.0306-.3196-.2935-.0413-.5801-.085-.8572-.1306-1.0909-.1795-2.0568-.3908-2.9118-.6236l.8428-1.367c1.5643.2721 3.3187.4864 5.2084.6302-.1661.0468-.3267.089-.4819.1264-.0259.0047-.0518.0092-.0776.0135-.5798.119-1.0822.2212-1.4299.272-.3091.1018-.5024.136-.5024.136v.0006s.1931-.034.5409-.1018c.3479-.0683.8309-.1703 1.4106-.3064.0194-.0046.0388-.0092.0584-.0139.178-.0326.3566-.0754.5393-.1221 1.7473.1313 3.6082.2022 5.54.2022h.0358c-1.4111.8001-3.1201 1.3095-4.8848 1.6041z" fill="#d23c2b"/><path d="m44.8456 133.769c-1.9318 0-3.7927-.0709-5.54-.2022.1081-.0276.2177-.0566.3296-.0856.3284-.085.6761-.1872 1.024-.3062.3478-.119.7151-.2722 1.0626-.4252.3481-.1701.6956-.3573 1.0238-.5614.097-.051.1742-.1021.2516-.1532l.2317-.1699c.1543-.1363.309-.2381.4442-.3743.1545-.1191.2705-.255.4061-.3913l.1739-.2041.0772-.1021c.0194-.034.0581-.068.0773-.1018.058-.0679.0966-.1361.1546-.2043.0386-.085.0965-.153.1353-.2213l.0576-.1018c.0196-.0339.0388-.0681.058-.1021.0388-.0677.0776-.1361.116-.2041.0773-.1532.1353-.2889.1933-.4252.0133-.0353.0267-.0688.0398-.1011 1.0736-.0027 2.1247-.0274 3.146-.0722-.3649 2.0564-1.6636 3.5097-3.4268 4.5094-.0117 0-.0242 0-.0358 0m-5.5974-.2065c-1.8897-.1438-3.6441-.3581-5.2084-.6302l2.4612-3.992c1.5647.1577 3.242.2654 4.9955.3144 1.1071.0502 2.2497.0768 3.4181.0774-.0015.0053-.003.0106-.0046.016l-.174.4081c-.0195.0682-.0583.1361-.0966.2044-.0196.0339-.0388.0678-.058.1018-.0196.034-.0388.0682-.058.1022-.058.0677-.0968.1361-.1351.204-.0386.0682-.0968.1361-.1352.2041l-.0774.1021-.0771.1022-.174.204c-.1159.1362-.2319.2721-.3671.3911-.1353.1363-.2899.2553-.4252.3744l-.2317.1701c-.0774.0683-.1548.119-.2319.1701-.3091.2213-.6378.4083-.9853.5784-.3477.1699-.6956.3232-1.0434.4425-.3285.1357-.6762.2381-1.0048.3399-.1322.041-.2611.0794-.387.115z" fill="#de4d33"/><path d="m44.9146 129.332c-1.1684-.0006-2.311-.0272-3.4181-.0774h.0003c1.107.0502 2.2496.0768 3.4178.0774m.2476-.0003c1.0734-.0028 2.1249-.0275 3.146-.0722h.0001c-1.0214.0448-2.0726.0695-3.1461.0722z" fill="#9fd6e4"/><path d="m41.4965 129.255c-1.7535-.049-3.4308-.1567-4.9955-.3144l.1292-.2095c.0195.045.0393.0898.0595.1344 1.2311.1481 2.543.2642 3.9159.3435.2942.017.5913.0324.8909.046z" fill="#de4d33"/><path d="m41.4968 129.255c-.0002 0-.0001 0-.0003 0-.2996-.0136-.5967-.029-.8909-.046.2944.017.5914.0324.8912.046z" fill="#9fd6e4"/><path d="m36.7564 134.111v-.0006s.1933-.0342.5024-.136c.3477-.0508.8501-.153 1.4299-.272.0258-.0043.0517-.0088.0776-.0135-.0196.0047-.039.0093-.0584.0139-.5797.1361-1.0627.2381-1.4106.3064-.3478.0678-.5409.1018-.5409.1018m2.0099-.4221c.1552-.0374.3158-.0795.4819-.1264.0189.0014.0385.0029.0574.0043-.1827.0467-.3613.0895-.5393.1221z" fill="#d23c2b"/><path d="m39.3056 133.567c-.0189-.0015-.0385-.0029-.0574-.0043.1259-.0356.2548-.074.387-.115.3286-.1018.6763-.2042 1.0048-.3399.3478-.1193.6957-.2726 1.0434-.4425.3475-.1701.6762-.3571.9853-.5784.0771-.0511.1545-.1018.2319-.1701l.2317-.1701c.1353-.1191.2899-.2381.4252-.3744.1352-.119.2512-.2549.3671-.3911l.174-.204.0771-.1022.0774-.1021c.0384-.068.0965-.1359.1352-.2041.0383-.0679.0771-.1363.1351-.204.0192-.034.0384-.0682.058-.1022.0192-.034.0384-.0679.058-.1018.0383-.0683.0771-.1362.0965-.2044l.1741-.4081c.0016-.0054.0031-.0107.0046-.016h.0427c.0683 0 .1367-.0001.2049-.0003-.0131.0323-.0265.0658-.0398.1011-.058.1363-.116.272-.1933.4252-.0384.068-.0772.1364-.116.2041-.0192.034-.0384.0682-.058.1021l-.0576.1018c-.0388.0683-.0967.1363-.1353.2213-.058.0682-.0966.1364-.1546.2043-.0191.0338-.058.0678-.0773.1018l-.0772.1021-.1739.2041c-.1356.1363-.2516.2722-.4061.3913-.1352.1362-.2899.238-.4442.3743l-.2317.1699c-.0774.0511-.1546.1022-.2516.1532-.3282.2041-.6757.3913-1.0238.5614-.3475.153-.7148.3062-1.0626.4252-.3479.119-.6956.2212-1.024.3062-.1119.029-.2215.058-.3296.0856z" fill="#de4d33"/><path d="m44.9573 129.332c-.0142 0-.0285 0-.0427 0h.0427c.0684 0 .1366-.0001.2049-.0003-.0682.0002-.1366.0003-.2049.0003z" fill="#9fd6e4"/><path d="m51.0017 124.447h-3.0218l.7803-.8792.5148-.548c0-.0106-.0001-.0211-.0003-.0316l.0395-.0444z" fill="#1d2729"/><path d="m35.9097 125.715c-.011-.1827-.0167-.3668-.0167-.5523 0-1.4307.3352-2.7832.9311-3.985.5259-1.0607 1.2553-2.0038 2.1371-2.7786-.8818.7748-1.6112 1.7179-2.1371 2.7786-.5959 1.2018-.9311 2.5543-.9311 3.985 0 .1855.0056.3696.0167.5523z" fill="#ddecef"/><path d="m36.6302 128.731c-.4049-.9341-.6558-1.9502-.7205-3.0162.0647 1.066.3155 2.082.7205 3.0162z" fill="#c66e5f"/><path d="m36.6302 128.731c-.4049-.9342-.6558-1.9502-.7205-3.0162-.011-.1827-.0167-.3668-.0167-.5523 0-1.4307.3352-2.7832.9311-3.985.5259-1.0607 1.2553-2.0038 2.1371-2.7786 1.3578.5067 2.5032 1.1655 3.4706 1.9072-.2141.1492-.4009.3344-.5517.5468-.7329.5817-1.2335 1.2871-1.5396 1.86zm6.8279-4.0587c-.0345-.1038-.0658-.2054-.0935-.3048.0013.0001.0025.0003.0038.0005.0265.0994.0567.2008.0902.3043-.0003 0-.0003 0-.0005 0z" fill="#9acfdc"/><path d="m48.3746 126.81s-.0325-.1007-.1286-.2578c-.1654-.4358-.7-1.4627-2.1562-1.8557-.1885-.3596-.4003-.727-.638-1.0958-.4143.4868-1.0332.796-1.7245.796-.1222 0-.2421-.0097-.3589-.0283-.2922-1.0951-.144-1.9459.7013-2.714.6145-.5604 1.3884-.7073 2.031-.7073.708 0 1.2565.1784 1.2565.1784v-.9734c.3312.0855 1.8977 1.1816 1.9175 2.8366l-.5145.5796-.8161.8689zm-.8263-4.7248c-.2385 0-.4318.1923-.4318.4294 0 .2372.1933.4295.4318.4295.2384 0 .4317-.1923.4317-.4295 0-.2371-.1933-.4294-.4317-.4294m-.1911-1.9331s-.0001 0-.0002 0z" fill="#eef8f9"/><path d="m46.0898 124.696c-.3636-.0982-.7848-.1568-1.2719-.1568-.4056 0-.8571.0407-1.3593.133-.0335-.1036-.0637-.2049-.0902-.3043.1168.0186.2367.0283.3589.0283.6913 0 1.3102-.3092 1.7245-.796.2377.3688.4495.7362.638 1.0958z" fill="#edf5f9"/><path d="m47.5483 122.944c-.2385 0-.4318-.1923-.4318-.4295 0-.2371.1933-.4294.4318-.4294.2384 0 .4317.1923.4317.4294 0 .2372-.1933.4295-.4317.4295z" fill="#2b2c2d"/><path d="m44.9146 129.332c-1.1682-.0006-2.3108-.0272-3.4178-.0774.71.0198 1.4328.03 2.1654.03l.0004.0002h.1894c.3628-.0009.723-.0043 1.0804-.0101-.0062.019-.0121.0381-.0178.0573m.2476-.0003c.0085-.021.017-.0415.0252-.0616.812-.016 1.6087-.0446 2.3872-.0848-.0005-.0051-.1936-1.8184-1.2515-4.0243 1.1823.4161 1.7095 1.042 1.9229 1.3905.0471.1241.0643.2002.0643.2002h.0002c.1397.9214.1313 1.7551-.0023 2.5078-1.0211.0447-2.0726.0694-3.146.0722m-1.7976-4.9645c-1.0755-.1727-1.897-1.1007-1.897-2.2197 0-.4824.1527-.929.4125-1.2949.8062-.64 1.8936-1.1305 3.3125-1.1305.7403 0 1.4029.0515 2.1042.3264v.9795s-.5459-.1795-1.2479-.1795c-.6374 0-1.4034.148-2.0062.7126-.8599.8057-.9951 1.6699-.6781 2.8061z" fill="#1d2729"/><path d="m40.6056 129.209c-1.3729-.0793-2.6848-.1954-3.9159-.3435-.0202-.0446-.04-.0894-.0595-.1344.0195.045.0394.0898.0595.1344 1.2311.1481 2.543.2642 3.9159.3435z" fill="#241311"/><path d="m43.852 129.285h-.1894l-.0004-.0002c-.7326 0-1.4554-.0102-2.1654-.03-.2998-.0136-.5968-.029-.8912-.046-1.3729-.0793-2.6848-.1954-3.9159-.3435-.0201-.0446-.04-.0894-.0595-.1344l3.7103-6.0181c.3061-.5729.8067-1.2783 1.5396-1.86-.2598.3659-.4125.8125-.4125 1.2949 0 1.119.8215 2.047 1.897 2.2197.0277.0994.059.201.0935.3048h.0005c.0077.0237.0156.0476.0237.0717 1.2209-.0001 2.1444.1722 2.8408.4173 1.0579 2.2059 1.251 4.0192 1.2515 4.0243-.7785.0402-1.5752.0688-2.3872.0848.0342-.0835.0656-.1612.0897-.2454.0386-.1364.0772-.2554.116-.3744.0192-.119.0579-.2385.0772-.3402.0385-.1021.0385-.2043.0581-.306.0192-.0853.0192-.1703.0384-.2554.0196-.3062.0388-.4934.0388-.4934l-.3091-.0169s0 .1702-.0192.4762c-.0194.0852-.0194.1703-.0389.2553 0 .085-.0192.187-.0385.2891-.0191.119-.0388.2212-.0579.3402-.0386.1022-.058.2381-.0968.3571-.0317.0977-.0765.207-.1128.3184-.3574.0058-.7176.0092-1.0804.0101z" fill="#1c2428"/><path d="m48.246 126.552c-.2134-.3486-.7406-.9744-1.9229-1.3905-.0735-.1534-.1511-.3085-.2333-.4652 1.4562.393 1.9908 1.4199 2.1562 1.8557z" fill="#2b2c2d"/><path d="m46.3231 125.161c-.6964-.2451-1.6199-.4173-2.8408-.4173-.0081-.0241-.016-.048-.0237-.0717.5022-.0923.9537-.133 1.3593-.133.4871 0 .9083.0586 1.2719.1568.0822.1567.1598.3118.2333.4652z" fill="#2b2b2c"/><path d="m48.7602 123.568.5146-.5797c.0001.0106.0002.0211.0002.0317z" fill="#2b2c2d"/><path d="m44.9573 129.332c-.0142 0-.0285 0-.0427 0 .0057-.0192.0116-.0383.0178-.0573.0851-.0014.1702-.003.255-.0046-.0082.0201-.0167.0406-.0252.0616-.0683.0002-.1365.0003-.2049.0003z" fill="#d5d8d7"/><path d="m44.9324 129.275c.0363-.1114.0811-.2207.1128-.3184.0388-.119.0582-.2549.0968-.3571.0191-.119.0388-.2212.0579-.3402.0193-.1021.0385-.2041.0385-.2891.0195-.085.0195-.1701.0389-.2553.0192-.306.0192-.4761.0192-.4761l.3091.0168s-.0192.1872-.0388.4934c-.0192.0851-.0192.1701-.0384.2554-.0196.1017-.0196.2039-.0581.306-.0193.1017-.058.2212-.0772.3402-.0388.119-.0774.238-.116.3744-.0241.0842-.0555.1619-.0897.2454-.0848.0016-.1699.0032-.255.0046z" fill="#d6d8d7"/><path d="m41.0731 129.244h.0003z" fill="#9fd6e4"/><path d="m44.7441 129.329h-.0015zm.0343 0h-.0065zm.0368 0h-.0135zm.0344 0h-.0163.0165m.0378 0h-.0219zm.0444 0h-.0335.0337c2.976 0 5.7859-.1684 8.2675-.4669.4554-1.0051.7314-2.1084.7865-3.2689-.0553 1.1605-.3312 2.2639-.7867 3.2689-2.4818.2985-5.2916.4669-8.2675.4669z" fill="#c7462f"/><path d="m52.947 121.089-.0029-.0058.0032.0058m.0115.023-.007-.0138.0067.0138m.0185.0365-.0173-.0346z" fill="#1d2533"/><path d="m46.5647 131.434c0 .3796-.698.6873-1.5588.6873-.8607 0-1.5585-.3077-1.5585-.6873 0-.3793.6978-.6873 1.5588-.6873.8605 0 1.5583.308 1.5583.6873m7.9858-.6442c0 .3795-.6977.6872-1.5583.6872-.8609 0-1.5586-.3077-1.5586-.6872 0-.3794.6977-.6874 1.5586-.6874.8606 0 1.5583.308 1.5583.6874m-16.6196 0c0 .3795-.6976.6872-1.5583.6872s-1.5585-.3077-1.5585-.6872c0-.3794.6978-.6874 1.5585-.6874s1.5583.308 1.5583.6874m21.3683-2.1476c0 .3798-.6977.6873-1.5586.6873-.8608 0-1.5585-.3075-1.5585-.6873 0-.3796.6977-.6873 1.5585-.6873.8609 0 1.5586.3077 1.5586.6873m-26.5482 0c0 .3798-.6978.6873-1.5585.6873-.8608 0-1.5585-.3075-1.5585-.6873 0-.3796.6977-.6873 1.5585-.6873.8607 0 1.5585.3077 1.5585.6873z" fill="#fffffe"/><path d="m46.1315 103.961 9.689 5.6426c3.2248 1.878 6.4495 3.756 9.6742 5.6341 1.3448.7831 1.3006.6894 1.3006 2.2551v11.2852 11.2681c0 1.5662.0582 1.481-1.2859 2.2637l-9.6889 5.6426c-3.2249 1.878-6.4496 3.7562-9.6744 5.6342-1.3445.7829-1.2422.7913-2.5864.0084l-9.689-5.6426c-3.2248-1.878-6.4495-3.756-9.6742-5.6341-1.3448-.7831-1.3006-.6894-1.3006-2.2551v-11.2852c0-3.756 0-7.5121 0-11.2681 0-1.5662-.0582-1.481 1.2859-2.2637l9.6889-5.6426c3.2249-1.878 6.4496-3.7562 9.6744-5.6342 1.3445-.7829 1.2422-.7913 2.5864-.0084z" fill="none" stroke="#e3556a" stroke-width=".0762"/><path d="m47.2791 33.7191 11.0189 6.4171c3.6673 2.1357 7.3346 4.2715 11.002 6.4073 1.5293.8906 1.479.7841 1.479 2.5647v12.8341 12.8147c0 1.7812.0663 1.6842-1.4624 2.5744l-11.0186 6.417c-3.6676 2.1358-7.3349 4.2718-11.0023 6.4076-1.5291.8904-1.4127.8999-2.9414.0095l-11.0189-6.4171c-3.6673-2.1357-7.3346-4.2715-11.002-6.4073-1.5293-.8906-1.479-.7841-1.479-2.5647v-12.8341c0-4.2716 0-8.5431 0-12.8147 0-1.7812-.0663-1.6842 1.4624-2.5744l11.0186-6.417c3.6676-2.1358 7.3349-4.2718 11.0023-6.4076 1.5291-.8904 1.4127-.8999 2.9414-.0095z" fill="#00b0b1"/><path d="m47.1026 37.1253 9.689 5.6426c3.2248 1.8781 6.4495 3.756 9.6742 5.6342 1.3448.783 1.3006.6893 1.3006 2.255v11.2853 11.268c0 1.5662.0582 1.481-1.2859 2.2637l-9.6889 5.6427c-3.2249 1.8779-6.4496 3.7562-9.6744 5.6341-1.3445.783-1.2422.7914-2.5864.0085l-9.689-5.6426c-3.2248-1.8781-6.4495-3.756-9.6742-5.6342-1.3448-.783-1.3006-.6893-1.3006-2.255v-11.2852c0-3.7561 0-7.5122 0-11.2681 0-1.5662-.0582-1.481 1.2859-2.2637l9.6889-5.6427c3.2249-1.8779 6.4496-3.7562 9.6744-5.6341 1.3445-.783 1.2422-.7914 2.5864-.0085z" fill="none" stroke="#f39" stroke-width=".0762"/><path d="m52.0884 52.9522c-.7277-1.1008-1.9601-1.8296-3.3621-1.8296-.4613-.0001-.9101.0779-1.3276.2255-.2209-.3848-.351-.8312-.351-1.3172.0001-1.4693 1.1557-2.6481 2.5949-2.6481.3696-.0001.6973.066 1.0021.1999.1511-.2211.3032-.4848.4544-.8151.6161.3523 1.7149 1.2892 1.8425 2.8728l-1.2157 1.7961z" fill="#fff"/><path d="m39.4631 62.1517.7556 1.5845-.1509-2.6401z"/><path d="m37.0858 62.7654 8.0495-14.1574c.6428-1.4753 2.0913-2.4949 3.7653-2.4949.8069 0 1.5697.2221 2.2021.6452-.1524.3349-.3059.6012-.458.8244-.3048-.134-.6325-.1999-1.0021-.1999-1.4392-.0001-2.5949 1.1788-2.5949 2.6481.0001.4859.1301.9324.351 1.3172.4175-.1476.8663-.2255 1.3276-.2255 2.2448-.0001 4.0549 1.8693 4.0549 4.1409 0 .0943-.0161.1896-.0348.2988-.0024.0187-.0057.0372-.0092.0569h.022c-.0104.0779-.0268.1559-.044.2339-.0164.0776-.0328.1557-.0432.2336l.0001.022c-1.5161 7.8971-10.9954 7.7287-12.4638 7.66l.0104-.0325-.1509-2.6401-.5964 1.0497z"/><path d="m43.8008 60.7845-.1744.1336s5.7975-.958 6.7135-5.8335l-.916.3113s-.2396 3.7854-5.6231 5.3886z" fill="#fff"/><path d="m51.2771 49.7869c.2893 0 .5232-.2396.5232-.5349 0-.2952-.2339-.5336-.5232-.5336-.2896 0-.5232.2384-.5232.5336 0 .2953.2336.5349.5232.5349z"/><path d="m52.9336 49.6532-1.0241 1.5577h2.7681z"/><path d="m40.0678 61.0961-4.8385 8.5215 3.6282-1.2068 1.3612-4.6746z"/><path d="m36.7069 76.4939h-.772l-1.1045-3.1877h.6929l.7893 2.4077.7883-2.4077h.6929l.7892 2.4077.7897-2.4077h.6927l-1.0788 3.1877h-.772l-.7533-2.1809z"/><path d="m43.116 76.4939h-.614v-.4288c-.2625.3148-.6125.472-1.0601.472-.3336 0-.6045-.0967-.8244-.2803-.2196-.1837-.3244-.4372-.3244-.7521 0-.3164.114-.5524.3501-.7012.2291-.1569.5439-.236.9395-.236h.8672v-.1232c0-.4197-.236-.6381-.7104-.6381-.2976 0-.6044.1045-.9208.3232l-.2976-.4196c.386-.3072.8244-.464 1.3241-.464.3768 0 .6836.0965.9208.2801.236.1919.3592.4895.3592.8928v2.0752zm-.6744-1.1916v-.2708h-.7545c-.4823 0-.7276.1488-.7276.4556 0 .1572.0616.2708.1848.358.122.0792.2884.1233.4988.1233.2104-.0001.4033-.0617.5613-.1837.1583-.1139.2372-.2719.2372-.4824z"/><path d="m46.7642 73.3062v2.7762c0 .5603-.1489.9892-.456 1.2695-.3068.2801-.7021.4197-1.1753.4197-.4824 0-.9113-.1488-1.2973-.4464l.3149-.508c.3164.2371.6232.3512.9476.3512.3152-.0001.5696-.0792.7544-.2456.1837-.1661.2804-.4288.2804-.788v-.4117c-.0967.1836-.2456.342-.4304.4464-.1836.114-.394.1664-.622.1664-.4208 0-.7717-.1488-1.0437-.4464-.2711-.2976-.4116-.6652-.4116-1.1033 0-.4371.1405-.8055.4116-1.1032.272-.2976.6229-.4464 1.0437-.4464s.7628.1756 1.0255.5253l.0001-.4729h.6581zm-2.4905 1.4718c0 .2615.0791.4895.2455.6731.1581.1932.3765.2803.658.2803.2721 0 .4997-.0871.6661-.271.1664-.1837.2545-.4114.2545-.6824 0-.2721-.0882-.5081-.2545-.6917-.1756-.1929-.394-.2801-.6661-.2801-.272 0-.4907.0952-.6487.2976-.1756.1836-.2548.4116-.2548.6742z"/><path d="m48.4474 73.841v1.6193c0 .1488.0441.2711.1232.3593.0792.0871.1929.1315.3325.1315.1407 0 .2812-.0699.4127-.2104l.2721.4732c-.2373.2092-.5001.3148-.7813.3148-.2896 0-.5256-.0964-.7277-.2975-.2011-.2012-.3071-.4637-.3071-.7965l.0001-1.5937h-.4034v-.5428h.4034v-.9893h.6755v.9973h.8416v.5428h-.8416z"/><path d="m52.7092 76.4939h-.6137v-.4288c-.2639.3148-.614.472-1.0616.472-.3324 0-.6044-.0967-.824-.2803-.2188-.1837-.3244-.4372-.3244-.7521 0-.3164.114-.5524.3511-.7012.2277-.1569.5441-.236.9381-.236h.8684v-.1232c0-.4197-.2372-.6381-.7104-.6381-.2987 0-.6056.1045-.9208.3232l-.2985-.4196c.3857-.3072.8241-.464 1.3241-.464.3765 0 .6836.0965.9208.2801.2369.1919.3592.4895.3592.8928v2.0752zm-.6753-1.1916v-.2708h-.7544c-.4815 0-.728.1488-.728.4556 0 .1572.0616.2708.1849.358.122.0792.2895.1233.4999.1233.2105-.0001.4033-.0617.5604-.1837.1581-.1139.2372-.2719.2372-.4824z"/><path d="m53.5684 72.667c-.0884-.0873-.1232-.1839-.1232-.2965 0-.114.0441-.2199.1232-.2988.0872-.0871.1837-.122.2976-.122.114 0 .2196.044.2989.122.0871.0884.1219.1848.1219.2988 0 .1126-.0431.2185-.1219.2965-.0793.0788-.1849.1231-.2989.1231-.1139.0093-.2104-.0347-.2976-.1231zm.6313 3.8269h-.6753v-3.1877h.6753z"/><path d="m54.9273 72.0461h.6756v4.4478h-.6756z"/><path d="m99.0666 37.1253 9.689 5.6426c3.2248 1.8781 6.4495 3.756 9.6742 5.6342 1.3448.783 1.3006.6893 1.3006 2.255v11.2853 11.268c0 1.5662.0582 1.481-1.2859 2.2637l-9.6889 5.6427c-3.2249 1.8779-6.4496 3.7562-9.6744 5.6341-1.3445.783-1.2422.7914-2.5864.0085l-9.689-5.6426c-3.2248-1.8781-6.4495-3.756-9.6742-5.6342-1.3448-.783-1.3006-.6893-1.3006-2.255v-11.2852c0-3.7561 0-7.5122 0-11.2681 0-1.5662-.0582-1.481 1.2859-2.2637l9.6889-5.6427c3.2249-1.8779 6.4496-3.7562 9.6744-5.6341 1.3445-.783 1.2422-.7914 2.5864-.0085z" fill="none" stroke="#f39" stroke-width=".0762"/><path d="m104.052 52.9522c-.7277-1.1008-1.9601-1.8296-3.3621-1.8296-.4613-.0001-.9101.0779-1.3276.2255-.2209-.3848-.351-.8312-.351-1.3172.0001-1.4693 1.1557-2.6481 2.5949-2.6481.3696-.0001.6973.066 1.0021.1999.1511-.2211.3032-.4848.4544-.8151.6161.3523 1.7149 1.2892 1.8425 2.8728l-1.2157 1.7961z" fill="#fff"/><path d="m91.4271 62.1517.7556 1.5845-.1509-2.6401z"/><path d="m89.0498 62.7654 8.0495-14.1574c.6428-1.4753 2.0913-2.4949 3.7653-2.4949.8069 0 1.5697.2221 2.2021.6452-.1524.3349-.3059.6012-.458.8244-.3048-.134-.6325-.1999-1.0021-.1999-1.4392-.0001-2.5949 1.1788-2.5949 2.6481.0001.4859.1301.9324.351 1.3172.4175-.1476.8663-.2255 1.3276-.2255 2.2448-.0001 4.0549 1.8693 4.0549 4.1409 0 .0943-.0161.1896-.0348.2988-.0024.0187-.0057.0372-.0092.0569h.022c-.0104.0779-.0268.1559-.044.2339-.0164.0776-.0328.1557-.0432.2336l.0001.022c-1.5161 7.8971-10.9954 7.7287-12.4638 7.66l.0104-.0325-.1509-2.6401-.5964 1.0497z"/><path d="m95.7648 60.7845-.1744.1336s5.7975-.958 6.7135-5.8335l-.916.3113s-.2396 3.7854-5.6231 5.3886z" fill="#fff"/><path d="m103.241 49.7869c.2893 0 .5232-.2396.5232-.5349 0-.2952-.2339-.5336-.5232-.5336-.2896 0-.5232.2384-.5232.5336 0 .2953.2336.5349.5232.5349z"/><path d="m104.898 49.6532-1.024 1.5577h2.768z"/><path d="m92.0318 61.0961-4.8385 8.5215 3.6282-1.2068 1.3612-4.6746z"/><path d="m88.6709 76.4939h-.772l-1.1045-3.1877h.6929l.7893 2.4077.7883-2.4077h.6929l.7892 2.4077.7897-2.4077h.6927l-1.0788 3.1877h-.772l-.7533-2.1809z"/><path d="m95.08 76.4939h-.614v-.4288c-.2625.3148-.6125.472-1.0601.472-.3336 0-.6045-.0967-.8244-.2803-.2196-.1837-.3244-.4372-.3244-.7521 0-.3164.114-.5524.3501-.7012.2291-.1569.5439-.236.9395-.236h.8672v-.1232c0-.4197-.236-.6381-.7104-.6381-.2976 0-.6044.1045-.9208.3232l-.2976-.4196c.386-.3072.8244-.464 1.3241-.464.3768 0 .6836.0965.9208.2801.236.1919.3592.4895.3592.8928v2.0752zm-.6744-1.1916v-.2708h-.7545c-.4823 0-.7276.1488-.7276.4556 0 .1572.0616.2708.1848.358.122.0792.2884.1233.4988.1233.2104-.0001.4033-.0617.5613-.1837.1583-.1139.2372-.2719.2372-.4824z"/><path d="m98.7282 73.3062v2.7762c0 .5603-.1489.9892-.456 1.2695-.3068.2801-.7021.4197-1.1753.4197-.4824 0-.9113-.1488-1.2973-.4464l.3149-.508c.3164.2371.6232.3512.9476.3512.3152-.0001.5696-.0792.7544-.2456.1837-.1661.2804-.4288.2804-.788v-.4117c-.0967.1836-.2456.342-.4304.4464-.1836.114-.394.1664-.622.1664-.4208 0-.7717-.1488-1.0437-.4464-.2711-.2976-.4116-.6652-.4116-1.1033 0-.4371.1405-.8055.4116-1.1032.272-.2976.6229-.4464 1.0437-.4464s.7628.1756 1.0255.5253l.0001-.4729h.6581zm-2.4905 1.4718c0 .2615.0791.4895.2455.6731.1581.1932.3765.2803.658.2803.2721 0 .4997-.0871.6661-.271.1664-.1837.2545-.4114.2545-.6824 0-.2721-.0882-.5081-.2545-.6917-.1756-.1929-.394-.2801-.6661-.2801-.272 0-.4907.0952-.6487.2976-.1756.1836-.2548.4116-.2548.6742z"/><path d="m100.411 73.841v1.6193c0 .1488.0441.2711.1232.3593.0792.0871.1929.1315.3325.1315.1407 0 .2812-.0699.4127-.2104l.2721.4732c-.2373.2092-.5001.3148-.7813.3148-.2896 0-.5256-.0964-.7277-.2975-.2011-.2012-.3071-.4637-.3071-.7965l.0001-1.5937h-.4034v-.5428h.4034v-.9893h.6755v.9973h.8416v.5428h-.8416z"/><path d="m104.673 76.4939h-.6137v-.4288c-.2639.3148-.614.472-1.0616.472-.3324 0-.6044-.0967-.824-.2803-.2188-.1837-.3244-.4372-.3244-.7521 0-.3164.114-.5524.3511-.7012.2277-.1569.5441-.236.9381-.236h.8684v-.1232c0-.4197-.2372-.6381-.7104-.6381-.2987 0-.6056.1045-.9208.3232l-.2985-.4196c.3857-.3072.8241-.464 1.3241-.464.3765 0 .6836.0965.9208.2801.2369.1919.3592.4895.3592.8928v2.0752zm-.6753-1.1916v-.2708h-.7544c-.4815 0-.728.1488-.728.4556 0 .1572.0616.2708.1849.358.122.0792.2895.1233.4999.1233.2105-.0001.4033-.0617.5604-.1837.1581-.1139.2372-.2719.2372-.4824z"/><path d="m105.532 72.667c-.0884-.0873-.1232-.1839-.1232-.2965 0-.114.0441-.2199.1232-.2988.0872-.0871.1837-.122.2976-.122.114 0 .2196.044.2989.122.0871.0884.1219.1848.1219.2988 0 .1126-.0431.2185-.1219.2965-.0793.0788-.1849.1231-.2989.1231-.1139.0093-.2104-.0347-.2976-.1231zm.6313 3.8269h-.6753v-3.1877h.6753z"/><path d="m106.891 72.0461h.676v4.4478h-.676z"/><path d="m206.196 33.7191 11.0189 6.4171c3.6673 2.1357 7.3346 4.2715 11.002 6.4073 1.5293.8906 1.479.7841 1.479 2.5647v12.8341 12.8147c0 1.7812.0663 1.6842-1.4624 2.5744l-11.0186 6.417c-3.6676 2.1358-7.3349 4.2718-11.0023 6.4076-1.5291.8904-1.4127.8999-2.9414.0095l-11.0189-6.4171c-3.6673-2.1357-7.3346-4.2715-11.002-6.4073-1.5293-.8906-1.479-.7841-1.479-2.5647v-12.8341c0-4.2716 0-8.5431 0-12.8147 0-1.7812-.0663-1.6842 1.4624-2.5744l11.0186-6.417c3.6676-2.1358 7.3349-4.2718 11.0023-6.4076 1.5291-.8904 1.4127-.8999 2.9414-.0095z" fill="#55b9d7"/><path d="m206.019 37.1253 9.689 5.6426c3.2248 1.8781 6.4495 3.756 9.6742 5.6342 1.3448.783 1.3006.6893 1.3006 2.255v11.2853 11.268c0 1.5662.0582 1.481-1.2859 2.2637l-9.6889 5.6427c-3.2249 1.8779-6.4496 3.7562-9.6744 5.6341-1.3445.783-1.2422.7914-2.5864.0085l-9.689-5.6426c-3.2248-1.8781-6.4495-3.756-9.6742-5.6342-1.3448-.783-1.3006-.6893-1.3006-2.255v-11.2852c0-3.7561 0-7.5122 0-11.2681 0-1.5662-.0582-1.481 1.2859-2.2637l9.6889-5.6427c3.2249-1.8779 6.4496-3.7562 9.6744-5.6341 1.3445-.783 1.2422-.7914 2.5864-.0085z" fill="none" stroke="#f39" stroke-width=".0762"/><path d="m211.005 52.9522c-.7277-1.1008-1.9601-1.8296-3.3621-1.8296-.4613-.0001-.9101.0779-1.3276.2255-.2209-.3848-.351-.8312-.351-1.3172.0001-1.4693 1.1557-2.6481 2.5949-2.6481.3696-.0001.6973.066 1.0021.1999.1511-.2211.3032-.4848.4544-.8151.6161.3523 1.7149 1.2892 1.8425 2.8728l-1.2157 1.7961z" fill="#fff"/><path d="m198.38 62.1517.756 1.5845-.151-2.6401z"/><path d="m196.003 62.7654 8.0495-14.1574c.6428-1.4753 2.0913-2.4949 3.7653-2.4949.8069 0 1.5697.2221 2.2021.6452-.1524.3349-.3059.6012-.458.8244-.3048-.134-.6325-.1999-1.0021-.1999-1.4392-.0001-2.5949 1.1788-2.5949 2.6481.0001.4859.1301.9324.351 1.3172.4175-.1476.8663-.2255 1.3276-.2255 2.2448-.0001 4.0549 1.8693 4.0549 4.1409 0 .0943-.0161.1896-.0348.2988-.0024.0187-.0057.0372-.0092.0569h.022c-.0104.0779-.0268.1559-.044.2339-.0164.0776-.0328.1557-.0432.2336l.0001.022c-1.5161 7.8971-10.9954 7.7287-12.4638 7.66l.0104-.0325-.1509-2.6401-.5964 1.0497z"/><path d="m202.718 60.7845-.1744.1336s5.7975-.958 6.7135-5.8335l-.916.3113s-.2396 3.7854-5.6231 5.3886z" fill="#fff"/><path d="m210.194 49.7869c.2893 0 .5232-.2396.5232-.5349 0-.2952-.2339-.5336-.5232-.5336-.2896 0-.5232.2384-.5232.5336 0 .2953.2336.5349.5232.5349z"/><path d="m211.85 49.6532-1.024 1.5577h2.768z"/><path d="m198.985 61.0961-4.839 8.5215 3.628-1.2068 1.362-4.6746z"/><path d="m195.624 76.4939h-.772l-1.105-3.1877h.693l.789 2.4077.789-2.4077h.693l.789 2.4077.79-2.4077h.692l-1.079 3.1877h-.772l-.753-2.1809z"/><path d="m202.033 76.4939h-.614v-.4288c-.2625.3148-.6125.472-1.0601.472-.3336 0-.6045-.0967-.8244-.2803-.2196-.1837-.3244-.4372-.3244-.7521 0-.3164.114-.5524.3501-.7012.2291-.1569.5439-.236.9395-.236h.8672v-.1232c0-.4197-.236-.6381-.7104-.6381-.2976 0-.6044.1045-.9208.3232l-.2976-.4196c.386-.3072.8244-.464 1.3241-.464.3768 0 .6836.0965.9208.2801.236.1919.3592.4895.3592.8928v2.0752zm-.6744-1.1916v-.2708h-.7545c-.4823 0-.7276.1488-.7276.4556 0 .1572.0616.2708.1848.358.122.0792.2884.1233.4988.1233.2104-.0001.4033-.0617.5613-.1837.1583-.1139.2372-.2719.2372-.4824z"/><path d="m205.681 73.3062v2.7762c0 .5603-.1489.9892-.456 1.2695-.3068.2801-.7021.4197-1.1753.4197-.4824 0-.9113-.1488-1.2973-.4464l.3149-.508c.3164.2371.6232.3512.9476.3512.3152-.0001.5696-.0792.7544-.2456.1837-.1661.2804-.4288.2804-.788v-.4117c-.0967.1836-.2456.342-.4304.4464-.1836.114-.394.1664-.622.1664-.4208 0-.7717-.1488-1.0437-.4464-.2711-.2976-.4116-.6652-.4116-1.1033 0-.4371.1405-.8055.4116-1.1032.272-.2976.6229-.4464 1.0437-.4464s.7628.1756 1.0255.5253l.0001-.4729h.6581zm-2.4905 1.4718c0 .2615.0791.4895.2455.6731.1581.1932.3765.2803.658.2803.2721 0 .4997-.0871.6661-.271.1664-.1837.2545-.4114.2545-.6824 0-.2721-.0882-.5081-.2545-.6917-.1756-.1929-.394-.2801-.6661-.2801-.272 0-.4907.0952-.6487.2976-.1756.1836-.2548.4116-.2548.6742z"/><path d="m207.364 73.841v1.6193c0 .1488.0441.2711.1232.3593.0792.0871.1929.1315.3325.1315.1407 0 .2812-.0699.4127-.2104l.2721.4732c-.2373.2092-.5001.3148-.7813.3148-.2896 0-.5256-.0964-.7277-.2975-.2011-.2012-.3071-.4637-.3071-.7965l.0001-1.5937h-.4034v-.5428h.4034v-.9893h.6755v.9973h.8416v.5428h-.8416z"/><path d="m211.626 76.4939h-.6137v-.4288c-.2639.3148-.614.472-1.0616.472-.3324 0-.6044-.0967-.824-.2803-.2188-.1837-.3244-.4372-.3244-.7521 0-.3164.114-.5524.3511-.7012.2277-.1569.5441-.236.9381-.236h.8684v-.1232c0-.4197-.2372-.6381-.7104-.6381-.2987 0-.6056.1045-.9208.3232l-.2985-.4196c.3857-.3072.8241-.464 1.3241-.464.3765 0 .6836.0965.9208.2801.2369.1919.3592.4895.3592.8928v2.0752zm-.6753-1.1916v-.2708h-.7544c-.4815 0-.728.1488-.728.4556 0 .1572.0616.2708.1849.358.122.0792.2895.1233.4999.1233.2105-.0001.4033-.0617.5604-.1837.1581-.1139.2372-.2719.2372-.4824z"/><path d="m212.485 72.667c-.0884-.0873-.1232-.1839-.1232-.2965 0-.114.0441-.2199.1232-.2988.0872-.0871.1837-.122.2976-.122.114 0 .2196.044.2989.122.0871.0884.1219.1848.1219.2988 0 .1126-.0431.2185-.1219.2965-.0793.0788-.1849.1231-.2989.1231-.1139.0093-.2104-.0347-.2976-.1231zm.6313 3.8269h-.6753v-3.1877h.6753z"/><path d="m213.844 72.0461h.676v4.4478h-.676z"/><path d="m260.725 33.7191 11.0189 6.4171c3.6673 2.1357 7.3346 4.2715 11.002 6.4073 1.5293.8906 1.479.7841 1.479 2.5647v12.8341 12.8147c0 1.7812.0663 1.6842-1.4624 2.5744l-11.0186 6.417c-3.6676 2.1358-7.3349 4.2718-11.0023 6.4076-1.5291.8904-1.4127.8999-2.9414.0095l-11.0189-6.4171c-3.6673-2.1357-7.3346-4.2715-11.002-6.4073-1.5293-.8906-1.479-.7841-1.479-2.5647v-12.8341c0-4.2716 0-8.5431 0-12.8147 0-1.7812-.0663-1.6842 1.4624-2.5744l11.0186-6.417c3.6676-2.1358 7.3349-4.2718 11.0023-6.4076 1.5291-.8904 1.4127-.8999 2.9414-.0095z" fill="#ffdbdb"/><path d="m260.548 37.1253 9.689 5.6426c3.2248 1.8781 6.4495 3.756 9.6742 5.6342 1.3448.783 1.3006.6893 1.3006 2.255v11.2853 11.268c0 1.5662.0582 1.481-1.2859 2.2637l-9.6889 5.6427c-3.2249 1.8779-6.4496 3.7562-9.6744 5.6341-1.3445.783-1.2422.7914-2.5864.0085l-9.689-5.6426c-3.2248-1.8781-6.4495-3.756-9.6742-5.6342-1.3448-.783-1.3006-.6893-1.3006-2.255v-11.2852c0-3.7561 0-7.5122 0-11.2681 0-1.5662-.0582-1.481 1.2859-2.2637l9.6889-5.6427c3.2249-1.8779 6.4496-3.7562 9.6744-5.6341 1.3445-.783 1.2422-.7914 2.5864-.0085z" fill="none" stroke="#f39" stroke-width=".0762"/><path d="m265.534 52.9522c-.7277-1.1008-1.9601-1.8296-3.3621-1.8296-.4613-.0001-.9101.0779-1.3276.2255-.2209-.3848-.351-.8312-.351-1.3172.0001-1.4693 1.1557-2.6481 2.5949-2.6481.3696-.0001.6973.066 1.0021.1999.1511-.2211.3032-.4848.4544-.8151.6161.3523 1.7149 1.2892 1.8425 2.8728l-1.2157 1.7961z" fill="#fff"/><path d="m252.909 62.1517.756 1.5845-.151-2.6401z"/><path d="m250.532 62.7654 8.0495-14.1574c.6428-1.4753 2.0913-2.4949 3.7653-2.4949.8069 0 1.5697.2221 2.2021.6452-.1524.3349-.3059.6012-.458.8244-.3048-.134-.6325-.1999-1.0021-.1999-1.4392-.0001-2.5949 1.1788-2.5949 2.6481.0001.4859.1301.9324.351 1.3172.4175-.1476.8663-.2255 1.3276-.2255 2.2448-.0001 4.0549 1.8693 4.0549 4.1409 0 .0943-.0161.1896-.0348.2988-.0024.0187-.0057.0372-.0092.0569h.022c-.0104.0779-.0268.1559-.044.2339-.0164.0776-.0328.1557-.0432.2336l.0001.022c-1.5161 7.8971-10.9954 7.7287-12.4638 7.66l.0104-.0325-.1509-2.6401-.5964 1.0497z"/><path d="m257.247 60.7845-.1744.1336s5.7975-.958 6.7135-5.8335l-.916.3113s-.2396 3.7854-5.6231 5.3886z" fill="#fff"/><path d="m264.723 49.7869c.2893 0 .5232-.2396.5232-.5349 0-.2952-.2339-.5336-.5232-.5336-.2896 0-.5232.2384-.5232.5336 0 .2953.2336.5349.5232.5349z"/><path d="m266.379 49.6532-1.024 1.5577h2.768z"/><path d="m253.514 61.0961-4.839 8.5215 3.628-1.2068 1.362-4.6746z"/><path d="m250.153 76.4939h-.772l-1.105-3.1877h.693l.789 2.4077.789-2.4077h.693l.789 2.4077.79-2.4077h.692l-1.079 3.1877h-.772l-.753-2.1809z"/><path d="m256.562 76.4939h-.614v-.4288c-.2625.3148-.6125.472-1.0601.472-.3336 0-.6045-.0967-.8244-.2803-.2196-.1837-.3244-.4372-.3244-.7521 0-.3164.114-.5524.3501-.7012.2291-.1569.5439-.236.9395-.236h.8672v-.1232c0-.4197-.236-.6381-.7104-.6381-.2976 0-.6044.1045-.9208.3232l-.2976-.4196c.386-.3072.8244-.464 1.3241-.464.3768 0 .6836.0965.9208.2801.236.1919.3592.4895.3592.8928v2.0752zm-.6744-1.1916v-.2708h-.7545c-.4823 0-.7276.1488-.7276.4556 0 .1572.0616.2708.1848.358.122.0792.2884.1233.4988.1233.2104-.0001.4033-.0617.5613-.1837.1583-.1139.2372-.2719.2372-.4824z"/><path d="m260.21 73.3062v2.7762c0 .5603-.1489.9892-.456 1.2695-.3068.2801-.7021.4197-1.1753.4197-.4824 0-.9113-.1488-1.2973-.4464l.3149-.508c.3164.2371.6232.3512.9476.3512.3152-.0001.5696-.0792.7544-.2456.1837-.1661.2804-.4288.2804-.788v-.4117c-.0967.1836-.2456.342-.4304.4464-.1836.114-.394.1664-.622.1664-.4208 0-.7717-.1488-1.0437-.4464-.2711-.2976-.4116-.6652-.4116-1.1033 0-.4371.1405-.8055.4116-1.1032.272-.2976.6229-.4464 1.0437-.4464s.7628.1756 1.0255.5253l.0001-.4729h.6581zm-2.4905 1.4718c0 .2615.0791.4895.2455.6731.1581.1932.3765.2803.658.2803.2721 0 .4997-.0871.6661-.271.1664-.1837.2545-.4114.2545-.6824 0-.2721-.0882-.5081-.2545-.6917-.1756-.1929-.394-.2801-.6661-.2801-.272 0-.4907.0952-.6487.2976-.1756.1836-.2548.4116-.2548.6742z"/><path d="m261.893 73.841v1.6193c0 .1488.0441.2711.1232.3593.0792.0871.1929.1315.3325.1315.1407 0 .2812-.0699.4127-.2104l.2721.4732c-.2373.2092-.5001.3148-.7813.3148-.2896 0-.5256-.0964-.7277-.2975-.2011-.2012-.3071-.4637-.3071-.7965l.0001-1.5937h-.4034v-.5428h.4034v-.9893h.6755v.9973h.8416v.5428h-.8416z"/><path d="m266.155 76.4939h-.6137v-.4288c-.2639.3148-.614.472-1.0616.472-.3324 0-.6044-.0967-.824-.2803-.2188-.1837-.3244-.4372-.3244-.7521 0-.3164.114-.5524.3511-.7012.2277-.1569.5441-.236.9381-.236h.8684v-.1232c0-.4197-.2372-.6381-.7104-.6381-.2987 0-.6056.1045-.9208.3232l-.2985-.4196c.3857-.3072.8241-.464 1.3241-.464.3765 0 .6836.0965.9208.2801.2369.1919.3592.4895.3592.8928v2.0752zm-.6753-1.1916v-.2708h-.7544c-.4815 0-.728.1488-.728.4556 0 .1572.0616.2708.1849.358.122.0792.2895.1233.4999.1233.2105-.0001.4033-.0617.5604-.1837.1581-.1139.2372-.2719.2372-.4824z"/><path d="m267.014 72.667c-.0884-.0873-.1232-.1839-.1232-.2965 0-.114.0441-.2199.1232-.2988.0872-.0871.1837-.122.2976-.122.114 0 .2196.044.2989.122.0871.0884.1219.1848.1219.2988 0 .1126-.0431.2185-.1219.2965-.0793.0788-.1849.1231-.2989.1231-.1139.0093-.2104-.0347-.2976-.1231zm.6313 3.8269h-.6753v-3.1877h.6753z"/><path d="m268.373 72.0461h.676v4.4478h-.676z"/><path d="m151.118 33.7191 11.0189 6.4171c3.6673 2.1357 7.3346 4.2715 11.002 6.4073 1.5293.8906 1.479.7841 1.479 2.5647v12.8341 12.8147c0 1.7812.0663 1.6842-1.4624 2.5744l-11.0186 6.417c-3.6676 2.1358-7.3349 4.2718-11.0023 6.4076-1.5291.8904-1.4127.8999-2.9414.0095l-11.0189-6.4171c-3.6673-2.1357-7.3346-4.2715-11.002-6.4073-1.5293-.8906-1.479-.7841-1.479-2.5647v-12.8341c0-4.2716 0-8.5431 0-12.8147 0-1.7812-.0663-1.6842 1.4624-2.5744l11.0186-6.417c3.6676-2.1358 7.3349-4.2718 11.0023-6.4076 1.5291-.8904 1.4127-.8999 2.9414-.0095z" fill="#fd5765"/><path d="m150.942 37.1253 9.689 5.6426c3.2248 1.8781 6.4495 3.756 9.6742 5.6342 1.3448.783 1.3006.6893 1.3006 2.255v11.2853 11.268c0 1.5662.0582 1.481-1.2859 2.2637l-9.6889 5.6427c-3.2249 1.8779-6.4496 3.7562-9.6744 5.6341-1.3445.783-1.2422.7914-2.5864.0085l-9.689-5.6426c-3.2248-1.8781-6.4495-3.756-9.6742-5.6342-1.3448-.783-1.3006-.6893-1.3006-2.255v-11.2852c0-3.7561 0-7.5122 0-11.2681 0-1.5662-.0582-1.481 1.2859-2.2637l9.6889-5.6427c3.2249-1.8779 6.4496-3.7562 9.6744-5.6341 1.3445-.783 1.2422-.7914 2.5864-.0085z" fill="none" stroke="#1f1a17" stroke-width=".0762"/><path d="m156.004 52.5901c-.6876-1.0501-1.853-1.7453-3.1782-1.7453-.4357-.0001-.8604.0744-1.2552.2152-.2084-.3671-.3317-.7929-.3317-1.2565.0001-1.4015 1.0924-2.5259 2.4531-2.5259.3504-.0001.6586.063.9481.1907.1428-.2109.2859-.4625.429-.7775.5823.336 1.6212 1.2297 1.7422 2.7402l-1.1489 1.7133z" fill="#fff"/><path d="m144.069 61.3651.714 1.5114-.143-2.5183z"/><path d="m141.821 61.9506 7.6107-13.5044c.6077-1.4071 1.9771-2.3797 3.5595-2.3797.762 0 1.4838.2118 2.0814.6154-.1442.3194-.2884.5735-.4324.7864-.2895-.1278-.5978-.1907-.9481-.1907-1.3607-.0001-2.4531 1.1244-2.4531 2.5259.0001.4635.1232.8894.3317 1.2565.3948-.1408.8195-.2152 1.2552-.2152 2.1227-.0001 3.8336 1.7831 3.8336 3.9499 0 .09-.0157.1808-.0321.285-.0034.0179-.0068.0355-.0091.0543h.0202c-.0102.0743-.0256.1487-.0412.2231-.0156.0741-.031.1485-.0409.2228l.0001.021c-1.4339 7.5328-10.3952 7.3722-11.7823 7.3066l.0089-.031-.1431-2.5183-.5632 1.0013z"/><path d="m148.168 60.061-.1641.1275s5.4812-.9138 6.3462-5.5644l-.865.297s-.2274 3.6107-5.3171 5.1399z" fill="#fff"/><path d="m155.036 49.0549c-.1209.0378-.2328.1221-.3171.2274-.0744.0919-.1996.1454-.3083.0999-.1076-.0446-.1618-.1708-.0988-.2697.1354-.2095.3449-.3923.5989-.4701.3004-.0919.6289-.0286.9281.2362.0877.0778.0755.2141-.0133.2919-.0886.0775-.2229.0652-.316-.0069-.1819-.1408-.3461-.1473-.4735-.1087z"/><path d="m156.803 49.4433-.968 1.4858h2.617z"/><path d="m145.909 60.0644-7.355 5.7262 3.607.2663 2.909-3.615z"/><path d="m141.463 75.0457h-.73l-1.044-3.0407h.655l.746 2.2966.745-2.2966h.656l.746 2.2966.746-2.2966h.654l-1.019 3.0407h-.729l-.713-2.0803z"/><path d="m147.523 75.0457h-.5812v-.4091c-.2483.3003-.5799.4503-1.0023.4503-.3149 0-.5721-.0923-.7796-.2674-.2072-.1752-.3072-.417-.3072-.7174.0001-.3018.1087-.5269.3316-.6688.2163-.1497.5144-.2252.8871-.2252h.8208v-.1175c0-.4003-.224-.6086-.6712-.6086-.2815 0-.5719.0997-.8703.3082l-.2816-.4002c.3648-.293.7784-.4426 1.2519-.4426.356 0 .6464.0921.8692.2672.2241.183.3407.4669.3407.8516v1.9795zm-.6387-1.1367v-.2583h-.7128c-.4561 0-.6876.142-.6876.4346 0 .1499.0576.2583.1728.3415.1164.0755.2739.1176.4735.1176.1984-.0001.3816-.0588.5301-.1752.1499-.1087.2239-.2594.224-.4602z"/><path d="m150.97 72.005v2.6481c0 .5345-.1408.9436-.4315 1.211-.2892.2672-.6632.4003-1.11.4003-.4556 0-.8627-.142-1.2275-.4258l.2996-.4846c.298.2262.5875.335.8947.335.2984-.0001.5388-.0755.7131-.2342.174-.1585.2649-.4091.2649-.7517v-.3927c-.0909.1752-.2317.3262-.4057.4259-.1743.1087-.3739.1586-.589.1586-.398 0-.7297-.1419-.9868-.4257-.2563-.2839-.3892-.6345-.3892-1.0524 0-.417.1329-.7684.3892-1.0523.2571-.2839.5888-.4259.9868-.4259.3983 0 .7207.1676.9703.5011v-.4511h.6211zm-2.3542 1.4039c0 .2495.0743.467.2327.6421.1488.1842.356.2674.6212.2674.2572 0 .4723-.0832.6296-.2586.1576-.1752.2407-.3924.2407-.6509.0001-.2595-.0831-.4846-.2407-.6598-.1652-.1839-.3725-.2671-.6296-.2671-.2575 0-.4648.0908-.6135.2839-.1661.1751-.2404.3926-.2404.643z"/><path d="m152.562 72.5152v1.5445c0 .142.0422.2587.1163.3428.0745.0831.182.1254.3152.1254.1331 0 .2648-.0667.3891-.2007l.2573.4514c-.224.1996-.4725.3003-.7376.3003-.2736 0-.4976-.092-.6884-.2838-.1908-.1919-.2896-.4424-.2896-.7597l.0001-1.5202h-.3816v-.5178h.3816v-.9436h.6376v.9512h.7963v.5178h-.7963z"/><path d="m156.59 75.0457h-.5799v-.4091c-.2485.3003-.5801.4503-1.0028.4503-.3147 0-.572-.0923-.7795-.2674-.2071-.1752-.3072-.417-.3072-.7174 0-.3018.1088-.5269.3316-.6688.2164-.1497.5147-.2252.8872-.2252h.8207v-.1175c0-.4003-.224-.6086-.6708-.6086-.2819 0-.5723.0997-.8707.3082l-.2817-.4002c.3649-.293.7796-.4426 1.252-.4426.356 0 .6467.0921.8695.2672.224.183.3404.4669.3404.8516v1.9795zm-.6376-1.1367v-.2583h-.7131c-.4559 0-.6887.142-.6887.4346 0 .1499.0587.2583.174.3415.1167.0755.2739.1176.4735.1176.1988-.0001.3804-.0588.5303-.1752.1497-.1087.224-.2594.224-.4602z"/><path d="m157.403 71.3953c-.0832-.0832-.1164-.1754-.1164-.2828 0-.1087.0419-.2098.1164-.285.0832-.0831.1739-.1164.2815-.1164.1077 0 .2076.042.2817.1164.0832.0843.1163.1763.1163.285.0001.1074-.0408.2084-.1163.2828-.0741.0752-.1741.1175-.2817.1175-.1075.0088-.1983-.0332-.2815-.1175zm.5966 3.6504h-.6386v-3.0407h.6386z"/><path d="m158.689 70.8031h.637v4.2426h-.637z"/></svg>