<svg width="754" height="171" fill="none" xmlns="http://www.w3.org/2000/svg"><g filter="url(#a)"><path fill="#fff" d="M7 5h140v110H7z"/><path d="M7 10a5 5 0 0 1 5-5h130a5 5 0 0 1 5 5v105H7V10Z" fill="#262626"/><path d="M7 115h140v42a5 5 0 0 1-5 5H12a5 5 0 0 1-5-5v-42Z" fill="#fff"/><path d="M24.23 127.256a2.83 2.83 0 0 0-.996-.639 3.366 3.366 0 0 0-1.224-.222c-.442 0-.846.076-1.213.228a2.699 2.699 0 0 0-.944.656c-.265.282-.47.617-.615 1.008a3.662 3.662 0 0 0-.216 1.289c0 .477.072.914.216 1.313.149.394.356.736.621 1.025.27.289.588.512.955.668a3.07 3.07 0 0 0 1.213.234c.383 0 .735-.058 1.055-.175.32-.121.602-.293.844-.516.246-.227.447-.498.603-.814.157-.317.26-.668.31-1.055h-2.776v-1.195h4.142l.041.585c0 .668-.103 1.28-.31 1.834a4.215 4.215 0 0 1-.873 1.436 3.925 3.925 0 0 1-1.348.932 4.41 4.41 0 0 1-1.723.328c-.648 0-1.25-.115-1.805-.346a4.502 4.502 0 0 1-1.447-.961 4.487 4.487 0 0 1-.96-1.453 4.743 4.743 0 0 1-.34-1.811c0-.648.113-1.25.34-1.804.23-.559.548-1.045.954-1.459a4.31 4.31 0 0 1 1.442-.961 4.632 4.632 0 0 1 1.799-.346c.613 0 1.199.106 1.757.317.563.21 1.065.513 1.506.908l-1.008.996ZM29.112 134h-1.441v-5.859h1.254l.052 1.066a2.24 2.24 0 0 1 .82-.873 2.291 2.291 0 0 1 1.196-.311 2.907 2.907 0 0 1 .727.094l-.176 1.301a2.53 2.53 0 0 0-.703-.106 1.71 1.71 0 0 0-.909.241 1.64 1.64 0 0 0-.603.668 2.124 2.124 0 0 0-.217.984V134Zm8.972-.68c-.73.532-1.53.797-2.397.797a3.476 3.476 0 0 1-1.693-.41 3.146 3.146 0 0 1-1.19-1.119 3.037 3.037 0 0 1-.433-1.606c0-.566.13-1.072.392-1.517a2.9 2.9 0 0 1 1.084-1.055c.461-.258.98-.387 1.559-.387.601 0 1.129.143 1.582.428a2.86 2.86 0 0 1 1.066 1.178c.254.5.381 1.082.381 1.746v.187h-4.512c.07.266.194.5.37.704.18.203.402.361.668.474.265.114.564.17.896.17.625 0 1.203-.203 1.734-.609l.493 1.019Zm-4.22-2.601H37.1a1.659 1.659 0 0 0-.27-.768 1.487 1.487 0 0 0-.568-.51 1.607 1.607 0 0 0-.779-.187 1.62 1.62 0 0 0-.785.187 1.53 1.53 0 0 0-.563.522 1.738 1.738 0 0 0-.27.756Zm8.299 6.211h-1.541l1.218-2.953-2.906-5.836h1.623l1.969 4.189 1.734-4.189h1.541l-3.639 8.789Z" fill="#262626"/><path d="M24.324 145.703h-1.412l-.387 2.174h1.436l-.111.68h-1.442L21.975 151h-.797l.427-2.443h-2.003L19.174 151h-.803l.434-2.443h-1.366l.112-.68h1.377l.38-2.174H17.92l.111-.68h1.4l.493-2.812h.803l-.498 2.812h2.003l.498-2.812h.797l-.498 2.812h1.407l-.112.68Zm-4.6 2.174h2.005l.38-2.174h-2.004l-.38 2.174ZM31.486 151h-5.28v-.65a31.052 31.052 0 0 0 1.847-1.694c.511-.511.927-.986 1.248-1.424.32-.437.554-.849.703-1.236a3.07 3.07 0 0 0 .228-1.125c0-.379-.072-.713-.216-1.002a1.631 1.631 0 0 0-.604-.68 1.634 1.634 0 0 0-.896-.246c-.387 0-.756.112-1.108.334a2.556 2.556 0 0 0-.855.909l-.569-.639a3.21 3.21 0 0 1 1.166-1.113 3.1 3.1 0 0 1 1.535-.399c.508 0 .957.113 1.348.34.39.223.697.531.92.926.223.394.334.849.334 1.365 0 .418-.078.85-.234 1.295a6.11 6.11 0 0 1-.698 1.353 9.88 9.88 0 0 1-1.148 1.383c-.453.465-.977.93-1.57 1.395h3.85V151Zm4.395.176c-.574 0-1.074-.133-1.5-.399a2.644 2.644 0 0 1-.99-1.125c-.234-.484-.351-1.054-.351-1.711 0-.554.084-1.103.252-1.646a6.841 6.841 0 0 1 .726-1.565 7.733 7.733 0 0 1 2.637-2.519l.48.674a7.346 7.346 0 0 0-2.402 2.355 6.268 6.268 0 0 0-.674 1.43c.242-.289.54-.516.89-.68a2.73 2.73 0 0 1 1.167-.246c.512 0 .965.113 1.36.34.398.227.71.539.937.937.226.395.34.848.34 1.36 0 .539-.125 1.019-.375 1.441a2.669 2.669 0 0 1-1.02.99c-.43.243-.922.364-1.477.364Zm.041-.908c.34 0 .643-.082.909-.247.27-.167.48-.396.633-.685.156-.289.234-.613.234-.973 0-.355-.076-.668-.229-.937a1.608 1.608 0 0 0-.62-.633 1.74 1.74 0 0 0-.909-.234c-.348 0-.658.078-.932.234a1.698 1.698 0 0 0-.644.645 1.863 1.863 0 0 0-.234.943c0 .355.078.676.234.961.16.285.375.512.644.679.27.165.575.247.915.247Zm9.769.732h-5.28v-.65a31.025 31.025 0 0 0 1.846-1.694c.512-.511.928-.986 1.248-1.424.32-.437.555-.849.703-1.236a3.05 3.05 0 0 0 .229-1.125c0-.379-.072-.713-.217-1.002a1.63 1.63 0 0 0-.603-.68 1.634 1.634 0 0 0-.897-.246 2.04 2.04 0 0 0-1.107.334 2.556 2.556 0 0 0-.856.909l-.568-.639c.3-.477.69-.848 1.166-1.113a3.1 3.1 0 0 1 1.535-.399c.508 0 .957.113 1.348.34.39.223.697.531.92.926.222.394.334.849.334 1.365 0 .418-.078.85-.235 1.295a6.11 6.11 0 0 1-.697 1.353 9.874 9.874 0 0 1-1.148 1.383c-.454.465-.977.93-1.57 1.395h3.849V151Zm4.395.176c-.574 0-1.074-.133-1.5-.399a2.644 2.644 0 0 1-.99-1.125c-.234-.484-.352-1.054-.352-1.711 0-.554.084-1.103.252-1.646a6.841 6.841 0 0 1 .727-1.565 7.733 7.733 0 0 1 2.637-2.519l.48.674a7.35 7.35 0 0 0-2.402 2.355 6.26 6.26 0 0 0-.674 1.43c.242-.289.539-.516.89-.68.352-.164.74-.246 1.166-.246.512 0 .965.113 1.36.34.398.227.71.539.937.937.227.395.34.848.34 1.36 0 .539-.125 1.019-.375 1.441a2.668 2.668 0 0 1-1.02.99c-.429.243-.921.364-1.476.364Zm.041-.908c.34 0 .643-.082.908-.247.27-.167.48-.396.633-.685.156-.289.235-.613.235-.973a1.87 1.87 0 0 0-.229-.937 1.607 1.607 0 0 0-.621-.633 1.74 1.74 0 0 0-.908-.234c-.348 0-.658.078-.932.234a1.698 1.698 0 0 0-.644.645 1.863 1.863 0 0 0-.235.943c0 .355.078.676.235.961.16.285.375.512.644.679.27.165.574.247.914.247Zm9.769.732h-5.28v-.65a30.99 30.99 0 0 0 1.846-1.694c.512-.511.928-.986 1.248-1.424.32-.437.555-.849.703-1.236a3.05 3.05 0 0 0 .229-1.125c0-.379-.073-.713-.217-1.002a1.63 1.63 0 0 0-.604-.68 1.634 1.634 0 0 0-.896-.246c-.387 0-.756.112-1.108.334a2.558 2.558 0 0 0-.855.909l-.568-.639c.3-.477.689-.848 1.166-1.113a3.1 3.1 0 0 1 1.535-.399c.508 0 .957.113 1.347.34a2.4 2.4 0 0 1 .92.926c.223.394.334.849.334 1.365a3.9 3.9 0 0 1-.234 1.295 6.104 6.104 0 0 1-.697 1.353 9.874 9.874 0 0 1-1.149 1.383c-.453.465-.976.93-1.57 1.395h3.85V151Zm4.395.176c-.574 0-1.074-.133-1.5-.399a2.644 2.644 0 0 1-.99-1.125c-.235-.484-.352-1.054-.352-1.711 0-.554.084-1.103.252-1.646a6.841 6.841 0 0 1 .727-1.565 7.736 7.736 0 0 1 2.637-2.519l.48.674a7.35 7.35 0 0 0-2.402 2.355 6.26 6.26 0 0 0-.674 1.43c.242-.289.539-.516.89-.68.352-.164.74-.246 1.166-.246.512 0 .965.113 1.36.34.398.227.71.539.937.937.227.395.34.848.34 1.36 0 .539-.125 1.019-.375 1.441a2.669 2.669 0 0 1-1.02.99c-.43.243-.922.364-1.476.364Zm.04-.908a1.694 1.694 0 0 0 1.542-.932c.156-.289.234-.613.234-.973a1.87 1.87 0 0 0-.228-.937 1.607 1.607 0 0 0-.621-.633 1.74 1.74 0 0 0-.909-.234c-.347 0-.658.078-.931.234a1.698 1.698 0 0 0-.645.645 1.863 1.863 0 0 0-.234.943c0 .355.078.676.234.961.16.285.375.512.645.679.27.165.574.247.914.247Z" fill="#5C5C5C"/></g><g filter="url(#b)"><path fill="#fff" d="M157 5h140v110H157z"/><path d="M157 10a5 5 0 0 1 5-5h130a5 5 0 0 1 5 5v105H157V10Z" fill="#2E1F5E"/><path d="M157 115h140v42a5 5 0 0 1-5 5H162a5 5 0 0 1-5-5v-42Z" fill="#fff"/><path d="M169.326 125.211V134h-1.547v-8.789h1.547Zm7.483 8.789h-1.441v-3.094c0-.488-.125-.873-.375-1.154-.25-.285-.588-.428-1.014-.428-.437 0-.789.151-1.054.451-.266.297-.399.698-.399 1.202V134h-1.441v-5.859h1.189l.047.943a2.11 2.11 0 0 1 .832-.785c.348-.184.754-.276 1.219-.276.758 0 1.353.231 1.787.692.434.461.65 1.097.65 1.91V134Zm7.577 0h-1.271l-.076-.82a2.722 2.722 0 0 1-2.11.937c-.55 0-1.043-.133-1.476-.398a2.853 2.853 0 0 1-1.026-1.084 3.273 3.273 0 0 1-.369-1.565c0-.582.123-1.101.369-1.558a2.84 2.84 0 0 1 1.026-1.09 2.765 2.765 0 0 1 1.476-.399c.403 0 .776.073 1.119.217.344.145.643.348.897.61v-3.639h1.441V134Zm-3.14-1.178c.312 0 .597-.07.855-.211.258-.144.463-.341.615-.591.153-.25.229-.536.229-.856v-.205a1.61 1.61 0 0 0-.844-1.43 1.725 1.725 0 0 0-.855-.217c-.328 0-.621.079-.879.235a1.648 1.648 0 0 0-.61.627 1.776 1.776 0 0 0-.222.89c0 .336.074.637.222.903.149.265.352.474.61.627.258.152.551.228.879.228Zm5.631-6.234a.698.698 0 0 1-.515-.211.731.731 0 0 1-.205-.522c0-.199.068-.369.205-.509a.688.688 0 0 1 .515-.217c.207 0 .381.072.522.217.14.14.211.31.211.509a.724.724 0 0 1-.733.733Zm.721 7.412h-1.441v-5.859h1.441V134Zm4.214.047a2.714 2.714 0 0 1-1.453-.393 2.797 2.797 0 0 1-1.008-1.072 3.212 3.212 0 0 1-.369-1.547c0-.578.123-1.094.369-1.547.246-.453.582-.81 1.008-1.072.425-.262.91-.393 1.453-.393.425 0 .818.082 1.177.247.36.164.665.392.915.685l.07-.814h1.265v5.701c0 .648-.138 1.213-.416 1.693-.273.481-.66.852-1.16 1.113-.5.266-1.092.399-1.775.399a3.953 3.953 0 0 1-2.549-.908l.592-1.178c.523.527 1.144.791 1.863.791.406 0 .758-.082 1.055-.246.301-.16.533-.389.697-.686.168-.293.252-.636.252-1.031v-.562a2.68 2.68 0 0 1-.885.603c-.34.145-.707.217-1.101.217Zm.316-1.283c.309 0 .588-.069.838-.205.254-.141.455-.332.604-.575a1.52 1.52 0 0 0 .228-.826v-.258c0-.308-.076-.582-.228-.82a1.58 1.58 0 0 0-.604-.562 1.696 1.696 0 0 0-.838-.211c-.32 0-.607.076-.861.228a1.643 1.643 0 0 0-.604.615 1.807 1.807 0 0 0-.217.885c0 .328.073.623.217.885.149.262.35.469.604.621.254.148.541.223.861.223Zm7.536 1.353a3.222 3.222 0 0 1-1.605-.398 3.002 3.002 0 0 1-1.114-1.084 3.048 3.048 0 0 1-.404-1.565c0-.582.135-1.101.404-1.558a2.988 2.988 0 0 1 1.114-1.09 3.212 3.212 0 0 1 1.605-.399c.594 0 1.125.133 1.594.399a2.89 2.89 0 0 1 1.101 1.09c.27.457.405.976.405 1.558a3.04 3.04 0 0 1-.405 1.565 2.902 2.902 0 0 1-1.101 1.084c-.469.265-1 .398-1.594.398Zm-.012-1.295a1.56 1.56 0 0 0 1.418-.855c.145-.266.217-.567.217-.903 0-.332-.072-.628-.217-.89a1.561 1.561 0 0 0-1.418-.856c-.308 0-.588.077-.838.229a1.637 1.637 0 0 0-.585.627 1.846 1.846 0 0 0-.211.89c0 .336.07.637.211.903.144.265.339.474.585.627.25.152.53.228.838.228Z" fill="#262626"/><path d="M174.324 145.703h-1.412l-.387 2.174h1.436l-.111.68h-1.442l-.433 2.443h-.797l.427-2.443h-2.003l-.428 2.443h-.803l.434-2.443h-1.366l.112-.68h1.377l.381-2.174h-1.389l.111-.68h1.401l.492-2.812h.803l-.498 2.812h2.003l.498-2.812h.797l-.498 2.812h1.407l-.112.68Zm-4.599 2.174h2.004l.38-2.174h-2.004l-.38 2.174Zm11.76 3.123h-5.279v-.65a30.972 30.972 0 0 0 1.846-1.694c.511-.511.927-.986 1.248-1.424.32-.437.554-.849.703-1.236a3.07 3.07 0 0 0 .228-1.125c0-.379-.072-.713-.217-1.002a1.625 1.625 0 0 0-.603-.68 1.636 1.636 0 0 0-.897-.246c-.386 0-.755.112-1.107.334a2.547 2.547 0 0 0-.855.909l-.569-.639a3.21 3.21 0 0 1 1.166-1.113 3.1 3.1 0 0 1 1.535-.399c.508 0 .957.113 1.348.34.391.223.697.531.92.926.223.394.334.849.334 1.365 0 .418-.078.85-.234 1.295a6.126 6.126 0 0 1-.698 1.353 9.834 9.834 0 0 1-1.148 1.383c-.453.465-.977.93-1.57 1.395h3.849V151Zm1.964 0v-8.789h5.385v.914h-4.354v2.953h4.113v.914h-4.113v3.094h4.412V151h-5.443Zm9.926 0h-1.031v-7.77l-1.629.592-.328-.832 2.145-.779h.843V151Zm2.193 0v-8.789h5.296v.914h-4.265v2.953h4.025v.914h-4.025V151h-1.031Zm6.844-.949.568-.815c.188.321.452.573.791.756.34.18.717.27 1.131.27a2.21 2.21 0 0 0 1.073-.252c.308-.172.548-.408.72-.709.172-.305.258-.656.258-1.055 0-.398-.086-.748-.258-1.049a1.806 1.806 0 0 0-.72-.709 2.196 2.196 0 0 0-1.067-.252c-.269 0-.523.041-.762.123a2.09 2.09 0 0 0-.638.346l-.528-.334.387-4.16h4.242v.914h-3.293l-.246 2.502c.332-.113.688-.17 1.067-.17.562 0 1.058.121 1.488.363.43.239.766.569 1.008.991.246.421.369.91.369 1.464 0 .571-.129 1.075-.387 1.512a2.721 2.721 0 0 1-1.072 1.02c-.457.246-.984.369-1.582.369-.52 0-1-.098-1.441-.293a2.973 2.973 0 0 1-1.108-.832Zm7.196.949v-8.789h5.385v.914h-4.354v2.953h4.114v.914h-4.114v3.094h4.413V151h-5.444Z" fill="#5C5C5C"/></g><g filter="url(#c)"><path fill="#fff" d="M307 5h140v110H307z"/><path d="M307 10a5 5 0 0 1 5-5h130a5 5 0 0 1 5 5v105H307V10Z" fill="#007D7E"/><path d="M307 115h140v42a5 5 0 0 1-5 5H312a5 5 0 0 1-5-5v-42Z" fill="#fff"/><path d="M321.365 134h-1.547v-7.43h-2.672v-1.359h6.885v1.359h-2.666V134Zm8.175-.68c-.731.532-1.529.797-2.397.797a3.474 3.474 0 0 1-1.693-.41 3.145 3.145 0 0 1-1.189-1.119 3.029 3.029 0 0 1-.434-1.606c0-.566.131-1.072.393-1.517a2.89 2.89 0 0 1 1.084-1.055c.46-.258.98-.387 1.558-.387.602 0 1.129.143 1.582.428.457.281.813.674 1.067 1.178.253.5.38 1.082.38 1.746v.187h-4.511c.07.266.193.5.369.704.18.203.402.361.668.474.265.114.564.17.896.17.625 0 1.203-.203 1.735-.609l.492 1.019Zm-4.219-2.601h3.234a1.66 1.66 0 0 0-.269-.768 1.492 1.492 0 0 0-.568-.51 1.612 1.612 0 0 0-.78-.187 1.62 1.62 0 0 0-.785.187 1.53 1.53 0 0 0-.562.522 1.73 1.73 0 0 0-.27.756ZM336.32 134h-1.254l-.082-.721a2.2 2.2 0 0 1-.803.621c-.32.145-.676.217-1.066.217-.414 0-.783-.08-1.108-.24a1.968 1.968 0 0 1-.767-.668 1.716 1.716 0 0 1-.276-.961c0-.379.1-.711.299-.996.203-.289.479-.516.826-.68a2.812 2.812 0 0 1 1.202-.246c.273 0 .546.031.82.094.277.062.533.15.768.264v-.188c0-.258-.071-.48-.211-.668a1.363 1.363 0 0 0-.569-.433 1.954 1.954 0 0 0-.803-.159c-.269 0-.539.047-.808.141-.27.09-.522.225-.756.404l-.41-1.131a5.135 5.135 0 0 1 1.148-.468c.395-.106.78-.159 1.155-.159.55 0 1.027.11 1.429.329.403.214.713.523.932.925.223.399.334.869.334 1.412V134Zm-2.906-1.043c.254 0 .488-.053.703-.158a1.4 1.4 0 0 0 .533-.44c.141-.191.215-.41.223-.656v-.064a2.09 2.09 0 0 0-.621-.305 2.273 2.273 0 0 0-.698-.111c-.359 0-.654.082-.884.246-.231.16-.346.371-.346.633 0 .16.047.306.14.439.094.129.223.23.387.305.168.074.356.111.563.111Zm6.088 1.043h-1.541v-9.023h1.541V134Z" fill="#262626"/><path d="M324.324 145.703h-1.412l-.387 2.174h1.436l-.111.68h-1.442l-.433 2.443h-.797l.427-2.443h-2.003l-.428 2.443h-.803l.434-2.443h-1.366l.112-.68h1.377l.381-2.174h-1.389l.111-.68h1.401l.492-2.812h.803l-.498 2.812h2.003l.498-2.812h.797l-.498 2.812h1.407l-.112.68Zm-4.599 2.174h2.004l.38-2.174h-2.004l-.38 2.174Zm8.825 3.299c-.618 0-1.149-.178-1.594-.533-.445-.36-.787-.879-1.026-1.559-.238-.684-.357-1.512-.357-2.484 0-.969.119-1.793.357-2.473.239-.68.581-1.197 1.026-1.553.445-.359.976-.539 1.594-.539.621 0 1.152.18 1.593.539.446.356.787.873 1.026 1.553.238.68.357 1.504.357 2.473 0 .972-.119 1.8-.357 2.484-.235.68-.574 1.199-1.02 1.559-.445.355-.978.533-1.599.533Zm0-.914c.605 0 1.076-.323 1.412-.967.34-.645.509-1.543.509-2.695 0-1.153-.169-2.049-.509-2.69-.336-.64-.807-.961-1.412-.961-.602 0-1.073.321-1.413.961-.339.641-.509 1.537-.509 2.69 0 1.152.17 2.05.509 2.695.34.644.811.967 1.413.967Zm7.149.914c-.617 0-1.149-.178-1.594-.533-.445-.36-.787-.879-1.025-1.559-.239-.684-.358-1.512-.358-2.484 0-.969.119-1.793.358-2.473.238-.68.58-1.197 1.025-1.553.445-.359.977-.539 1.594-.539.621 0 1.152.18 1.594.539.445.356.787.873 1.025 1.553.238.68.357 1.504.357 2.473 0 .972-.119 1.8-.357 2.484-.234.68-.574 1.199-1.02 1.559-.445.355-.978.533-1.599.533Zm0-.914c.605 0 1.076-.323 1.412-.967.34-.645.51-1.543.51-2.695 0-1.153-.17-2.049-.51-2.69-.336-.64-.807-.961-1.412-.961-.602 0-1.072.321-1.412.961-.34.641-.51 1.537-.51 2.69 0 1.152.17 2.05.51 2.695.34.644.81.967 1.412.967Zm5.801.738h-1.113l3.246-7.875h-4.172v-.914h5.373v.715L341.5 151Zm4.888 0v-8.789h2.531c1.078 0 2.004.176 2.777.527.778.352 1.374.856 1.788 1.512.418.656.627 1.441.627 2.355 0 .911-.209 1.696-.627 2.356-.414.656-1.01 1.16-1.788 1.512-.773.351-1.699.527-2.777.527h-2.531Zm1.031-.914h1.547c.863 0 1.6-.137 2.209-.41.609-.274 1.074-.67 1.395-1.19.324-.519.486-1.146.486-1.881 0-.734-.162-1.361-.486-1.88-.321-.52-.786-.916-1.395-1.19-.609-.273-1.346-.41-2.209-.41h-1.547v6.961Zm9.868.914h-1.113l3.246-7.875h-4.172v-.914h5.373v.715L357.287 151Zm4.888 0v-8.789h5.384v.914h-4.353v2.953h4.113v.914h-4.113v3.094h4.412V151h-5.443Z" fill="#5C5C5C"/></g><g filter="url(#d)"><path fill="#fff" d="M457 5h140v110H457z"/><path d="M457 10a5 5 0 0 1 5-5h130a5 5 0 0 1 5 5v105H457V10Z" fill="#B3E7E8"/><path d="M457 115h140v42a5 5 0 0 1-5 5H462a5 5 0 0 1-5-5v-42Z" fill="#fff"/><path d="M473.404 134h-5.625v-8.789h1.547v7.43h4.078V134Zm2.023-7.412a.7.7 0 0 1-.516-.211.731.731 0 0 1-.205-.522c0-.199.068-.369.205-.509a.69.69 0 0 1 .516-.217c.207 0 .38.072.521.217a.69.69 0 0 1 .211.509.72.72 0 0 1-.732.733Zm.72 7.412h-1.441v-5.859h1.441V134Zm4.214.047a2.716 2.716 0 0 1-1.453-.393 2.797 2.797 0 0 1-1.008-1.072 3.212 3.212 0 0 1-.369-1.547c0-.578.123-1.094.369-1.547.246-.453.582-.81 1.008-1.072.426-.262.91-.393 1.453-.393.426 0 .818.082 1.178.247.359.164.664.392.914.685l.07-.814h1.266v5.701c0 .648-.139 1.213-.416 1.693a2.794 2.794 0 0 1-1.161 1.113c-.5.266-1.091.399-1.775.399a3.953 3.953 0 0 1-2.549-.908l.592-1.178c.524.527 1.145.791 1.863.791.407 0 .758-.082 1.055-.246.301-.16.533-.389.697-.686.168-.293.252-.636.252-1.031v-.562a2.68 2.68 0 0 1-.885.603 2.773 2.773 0 0 1-1.101.217Zm.316-1.283c.309 0 .588-.069.838-.205.254-.141.455-.332.604-.575a1.52 1.52 0 0 0 .228-.826v-.258c0-.308-.076-.582-.228-.82a1.58 1.58 0 0 0-.604-.562 1.696 1.696 0 0 0-.838-.211c-.32 0-.607.076-.861.228a1.643 1.643 0 0 0-.604.615 1.807 1.807 0 0 0-.216.885c0 .328.072.623.216.885.149.262.35.469.604.621.254.148.541.223.861.223Zm4.812 1.236v-8.789h1.441v3.68c.43-.579 1.061-.868 1.893-.868.75 0 1.336.231 1.757.692.422.457.633 1.094.633 1.91V134h-1.441v-3.006c0-.531-.123-.943-.369-1.236-.246-.297-.592-.446-1.037-.446-.45 0-.801.151-1.055.452-.254.297-.381.707-.381 1.23V134h-1.441Zm11.057-.152a3.24 3.24 0 0 1-1.248.269c-.41 0-.771-.088-1.084-.263a1.897 1.897 0 0 1-.727-.733 2.278 2.278 0 0 1-.257-1.101v-2.59h-1.026v-1.289h1.102v-1.465h1.365v1.465h1.67v1.289h-1.67v2.326c0 .332.09.594.27.785a.911.911 0 0 0 .685.287c.242 0 .483-.074.721-.223l.199 1.243Zm7.859.152h-1.547v-7.43h-2.672v-1.359h6.885v1.359h-2.666V134Zm8.175-.68c-.731.532-1.53.797-2.397.797a3.474 3.474 0 0 1-1.693-.41 3.147 3.147 0 0 1-1.19-1.119 3.037 3.037 0 0 1-.433-1.606c0-.566.131-1.072.392-1.517a2.904 2.904 0 0 1 1.084-1.055 3.138 3.138 0 0 1 1.559-.387c.602 0 1.129.143 1.582.428.457.281.812.674 1.066 1.178.254.5.381 1.082.381 1.746v.187h-4.511c.07.266.193.5.369.704.179.203.402.361.668.474.265.114.564.17.896.17.625 0 1.203-.203 1.735-.609l.492 1.019Zm-4.219-2.601h3.234a1.66 1.66 0 0 0-.269-.768 1.488 1.488 0 0 0-.569-.51 1.605 1.605 0 0 0-.779-.187c-.293 0-.555.062-.785.187a1.54 1.54 0 0 0-.563.522 1.742 1.742 0 0 0-.269.756ZM519.36 134h-1.254l-.082-.721a2.21 2.21 0 0 1-.803.621c-.32.145-.676.217-1.066.217-.414 0-.784-.08-1.108-.24a1.968 1.968 0 0 1-.767-.668 1.716 1.716 0 0 1-.276-.961c0-.379.1-.711.299-.996.203-.289.479-.516.826-.68a2.811 2.811 0 0 1 1.201-.246c.274 0 .547.031.821.094.277.062.533.15.767.264v-.188c0-.258-.07-.48-.211-.668a1.353 1.353 0 0 0-.568-.433 1.954 1.954 0 0 0-.803-.159c-.269 0-.539.047-.808.141-.27.09-.522.225-.756.404l-.41-1.131a5.135 5.135 0 0 1 1.148-.468 4.44 4.44 0 0 1 1.154-.159c.551 0 1.028.11 1.43.329.402.214.713.523.932.925.222.399.334.869.334 1.412V134Zm-2.906-1.043c.253 0 .488-.053.703-.158.218-.106.396-.252.533-.44.14-.191.215-.41.222-.656v-.064a2.067 2.067 0 0 0-.621-.305 2.262 2.262 0 0 0-.697-.111c-.359 0-.654.082-.885.246-.23.16-.345.371-.345.633 0 .16.047.306.14.439.094.129.223.23.387.305.168.074.355.111.563.111Zm6.088 1.043h-1.541v-9.023h1.541V134Z" fill="#262626"/><path d="M474.324 145.703h-1.412l-.387 2.174h1.436l-.111.68h-1.442l-.433 2.443h-.797l.427-2.443h-2.003l-.428 2.443h-.803l.434-2.443h-1.366l.112-.68h1.377l.381-2.174h-1.389l.111-.68h1.401l.492-2.812h.803l-.498 2.812h2.003l.498-2.812h.797l-.498 2.812h1.407l-.112.68Zm-4.599 2.174h2.004l.38-2.174h-2.004l-.38 2.174Zm6.258 3.123v-8.789h3.117c.84 0 1.5.193 1.981.58.48.387.721.918.721 1.594 0 .48-.12.9-.358 1.26a2.042 2.042 0 0 1-.955.773c.535.133.955.389 1.26.768.308.375.463.835.463 1.382 0 .485-.121.911-.364 1.278a2.38 2.38 0 0 1-1.002.849c-.429.203-.931.305-1.505.305h-3.358Zm1.031-4.91h2.063c.516 0 .928-.137 1.236-.41.313-.274.469-.635.469-1.084 0-.453-.158-.811-.475-1.073-.316-.265-.748-.398-1.295-.398h-1.998v2.965Zm0 3.996h2.104c.406 0 .762-.068 1.066-.205.305-.141.543-.334.715-.58.172-.25.258-.537.258-.862 0-.316-.082-.591-.246-.826a1.52 1.52 0 0 0-.686-.539c-.293-.129-.638-.193-1.037-.193h-2.174v3.205Zm6.4.094.433-.762c.324.281.658.494 1.002.639.348.14.699.211 1.055.211.371 0 .697-.073.978-.217.282-.149.502-.352.663-.61.16-.261.24-.562.24-.902 0-.547-.211-.973-.633-1.277-.422-.309-1.008-.463-1.758-.463h-.305v-.75h.305c.406 0 .768-.072 1.084-.217.32-.144.572-.342.756-.592a1.43 1.43 0 0 0 .275-.861c0-.277-.07-.524-.211-.738a1.378 1.378 0 0 0-.568-.51 1.786 1.786 0 0 0-.832-.188c-.305 0-.609.065-.914.194a3.233 3.233 0 0 0-.873.551l-.492-.715a3.462 3.462 0 0 1 1.095-.692 3.357 3.357 0 0 1 1.266-.246c.484 0 .914.094 1.289.281.379.188.678.446.897.774.218.324.328.695.328 1.113 0 .496-.155.94-.463 1.33a2.625 2.625 0 0 1-1.184.856c.621.14 1.112.408 1.471.802.359.395.539.883.539 1.465 0 .485-.125.918-.375 1.301-.25.379-.592.678-1.025.897-.434.214-.93.322-1.489.322-.476 0-.933-.084-1.371-.252a3.857 3.857 0 0 1-1.183-.744Zm7.172.82v-8.789h5.385v.914h-4.353v2.953h4.113v.914h-4.113v3.094h4.412V151h-5.444Zm8.978 0h-1.114l3.246-7.875h-4.171v-.914h5.373v.715L499.564 151Zm4.887 0v-8.789h5.385v.914h-4.354v2.953h4.114v.914h-4.114v3.094h4.413V151h-5.444Zm9.962.176c-.57 0-1.07-.104-1.5-.311a2.383 2.383 0 0 1-.996-.873c-.235-.379-.352-.818-.352-1.318 0-.563.149-1.045.446-1.447.3-.407.71-.7 1.23-.879a2.156 2.156 0 0 1-1.002-.791c-.242-.356-.363-.778-.363-1.266 0-.457.103-.853.31-1.189.211-.34.506-.602.885-.786.383-.187.83-.281 1.342-.281.512 0 .957.094 1.336.281.383.184.678.446.885.786.211.336.316.732.316 1.189 0 .488-.121.91-.363 1.266a2.156 2.156 0 0 1-1.002.791c.519.175.929.466 1.23.873.301.406.451.89.451 1.453 0 .5-.119.939-.357 1.318a2.335 2.335 0 0 1-.996.873c-.426.207-.926.311-1.5.311Zm0-5.197c.453 0 .82-.139 1.101-.417.282-.281.422-.646.422-1.095 0-.453-.14-.819-.422-1.096-.281-.281-.648-.422-1.101-.422-.453 0-.82.141-1.102.422-.281.277-.422.643-.422 1.096 0 .449.141.814.422 1.095.282.278.649.417 1.102.417Zm0 4.283c.363 0 .682-.073.955-.217.273-.149.486-.356.639-.621a1.82 1.82 0 0 0 .228-.92c0-.352-.076-.66-.228-.926a1.564 1.564 0 0 0-.639-.615 1.964 1.964 0 0 0-.955-.223c-.359 0-.676.074-.949.223a1.592 1.592 0 0 0-.639.621 1.8 1.8 0 0 0-.229.92c0 .351.077.66.229.926.152.261.365.466.639.615.273.144.59.217.949.217Z" fill="#5C5C5C"/></g><g filter="url(#e)"><path fill="#fff" d="M607 5h140v110H607z"/><path d="M607 10a5 5 0 0 1 5-5h130a5 5 0 0 1 5 5v105H607V10Z" fill="#F9CBCE"/><path d="M607 115h140v42a5 5 0 0 1-5 5H612a5 5 0 0 1-5-5v-42Z" fill="#fff"/><path d="M617.779 134v-8.789h2.907c.734 0 1.365.117 1.892.351.531.235.938.569 1.219 1.002.285.434.428.952.428 1.553 0 .598-.143 1.115-.428 1.553-.281.437-.686.775-1.213 1.014-.527.234-1.156.351-1.887.351h-1.371V134h-1.547Zm1.547-4.318h1.213c.676 0 1.195-.137 1.559-.411.363-.277.545-.662.545-1.154 0-.492-.182-.873-.545-1.142-.364-.27-.883-.405-1.559-.405h-1.213v3.112Zm7.144-3.094a.7.7 0 0 1-.516-.211.731.731 0 0 1-.205-.522c0-.199.068-.369.205-.509a.69.69 0 0 1 .516-.217c.207 0 .38.072.521.217a.69.69 0 0 1 .211.509.72.72 0 0 1-.732.733Zm.72 7.412h-1.441v-5.859h1.441V134Zm7.507 0h-1.442v-3.094c0-.488-.125-.873-.375-1.154-.25-.285-.587-.428-1.013-.428-.438 0-.789.151-1.055.451-.266.297-.398.698-.398 1.202V134h-1.442v-5.859h1.19l.047.943a2.11 2.11 0 0 1 .832-.785c.347-.184.754-.276 1.218-.276.758 0 1.354.231 1.787.692.434.461.651 1.097.651 1.91V134Zm3.089 0h-1.442v-8.789h1.442v5.666l.533-.65 1.974-2.086h1.811l-2.449 2.589 2.759 3.27h-1.857l-1.898-2.338-.873.861V134Z" fill="#262626"/><path d="M624.324 145.703h-1.412l-.387 2.174h1.436l-.111.68h-1.442l-.433 2.443h-.797l.427-2.443h-2.003l-.428 2.443h-.803l.434-2.443h-1.366l.112-.68h1.377l.381-2.174h-1.389l.111-.68h1.401l.492-2.812h.803l-.498 2.812h2.003l.498-2.812h.797l-.498 2.812h1.407l-.112.68Zm-4.599 2.174h2.004l.38-2.174h-2.004l-.38 2.174Zm6.258 3.123v-8.789h5.297v.914h-4.266v2.953h4.026v.914h-4.026V151h-1.031Zm8.942 0-.48-.674a7.493 7.493 0 0 0 1.353-1.06 7.282 7.282 0 0 0 1.055-1.295c.293-.465.518-.942.674-1.43a2.463 2.463 0 0 1-.891.686c-.351.16-.742.24-1.172.24-.511 0-.966-.113-1.365-.34a2.48 2.48 0 0 1-.931-.932 2.706 2.706 0 0 1-.34-1.365c0-.539.123-1.019.369-1.441.25-.422.592-.752 1.025-.991a2.992 2.992 0 0 1 1.483-.363c.578 0 1.078.133 1.5.399.425.265.754.64.984 1.125.234.484.352 1.054.352 1.711 0 .554-.086 1.103-.258 1.646a6.61 6.61 0 0 1-.727 1.57c-.312.5-.691.965-1.136 1.395a7.893 7.893 0 0 1-1.495 1.119Zm.715-4.348c.352 0 .662-.078.932-.234.273-.16.488-.377.644-.65.157-.278.235-.592.235-.944 0-.355-.078-.674-.235-.955a1.754 1.754 0 0 0-.644-.674 1.693 1.693 0 0 0-.914-.252 1.68 1.68 0 0 0-.908.252c-.27.164-.483.391-.639.68a2.035 2.035 0 0 0-.229.973c0 .351.075.664.223.937.152.27.359.483.621.639.266.152.57.228.914.228Zm11.942 3.223a4.31 4.31 0 0 1-1.441.955 4.739 4.739 0 0 1-1.828.346c-.66 0-1.27-.114-1.828-.34a4.35 4.35 0 0 1-1.447-.955 4.415 4.415 0 0 1-.956-1.453 4.816 4.816 0 0 1-.339-1.823c0-.66.113-1.267.339-1.822a4.334 4.334 0 0 1 .956-1.453 4.35 4.35 0 0 1 1.447-.955 4.808 4.808 0 0 1 1.828-.34c.656 0 1.264.115 1.822.346a4.25 4.25 0 0 1 1.442.949l-.721.732a3.429 3.429 0 0 0-2.561-1.113c-.504 0-.968.092-1.394.276a3.268 3.268 0 0 0-1.113.767 3.553 3.553 0 0 0-.733 1.16c-.172.446-.258.93-.258 1.453 0 .528.086 1.014.258 1.459.176.442.42.829.733 1.161.316.328.687.584 1.113.767.426.18.89.27 1.394.27.52 0 .998-.098 1.436-.293a3.378 3.378 0 0 0 1.125-.821l.726.727Zm1.665 1.125v-8.789h3.117c.84 0 1.5.193 1.981.58.48.387.721.918.721 1.594 0 .48-.12.9-.358 1.26a2.037 2.037 0 0 1-.955.773c.535.133.955.389 1.26.768.308.375.463.835.463 1.382 0 .485-.121.911-.364 1.278a2.383 2.383 0 0 1-1.001.849c-.43.203-.932.305-1.506.305h-3.358Zm1.032-4.91h2.062c.516 0 .928-.137 1.236-.41.313-.274.469-.635.469-1.084 0-.453-.158-.811-.475-1.073-.316-.265-.748-.398-1.294-.398h-1.998v2.965Zm0 3.996h2.103c.406 0 .762-.068 1.066-.205.305-.141.543-.334.715-.58.172-.25.258-.537.258-.862 0-.316-.082-.591-.246-.826a1.52 1.52 0 0 0-.686-.539c-.293-.129-.638-.193-1.037-.193h-2.173v3.205Zm14.239-.211a4.325 4.325 0 0 1-1.442.955 4.735 4.735 0 0 1-1.828.346c-.66 0-1.269-.114-1.828-.34a4.35 4.35 0 0 1-1.447-.955 4.396 4.396 0 0 1-.955-1.453 4.797 4.797 0 0 1-.34-1.823c0-.66.113-1.267.34-1.822a4.316 4.316 0 0 1 2.402-2.408 4.812 4.812 0 0 1 1.828-.34c.656 0 1.264.115 1.822.346a4.25 4.25 0 0 1 1.442.949l-.721.732a3.425 3.425 0 0 0-2.561-1.113 3.48 3.48 0 0 0-1.394.276 3.268 3.268 0 0 0-1.113.767 3.553 3.553 0 0 0-.733 1.16c-.172.446-.258.93-.258 1.453 0 .528.086 1.014.258 1.459.176.442.42.829.733 1.161.316.328.687.584 1.113.767.426.18.891.27 1.394.27.52 0 .999-.098 1.436-.293a3.358 3.358 0 0 0 1.125-.821l.727.727Zm1.664 1.125v-8.789h5.385v.914h-4.353v2.953h4.113v.914h-4.113v3.094h4.412V151h-5.444Z" fill="#5C5C5C"/></g><defs><filter id="a" x="0" y="0" width="154" height="171" filterUnits="userSpaceOnUse" color-interpolation-filters="sRGB"><feFlood flood-opacity="0" result="BackgroundImageFix"/><feColorMatrix in="SourceAlpha" values="0 0 0 0 0 0 0 0 0 0 0 0 0 0 0 0 0 0 127 0" result="hardAlpha"/><feOffset dy="2"/><feGaussianBlur stdDeviation="3.5"/><feComposite in2="hardAlpha" operator="out"/><feColorMatrix values="0 0 0 0 0 0 0 0 0 0 0 0 0 0 0 0 0 0 0.09 0"/><feBlend in2="BackgroundImageFix" result="effect1_dropShadow_1031_2071"/><feBlend in="SourceGraphic" in2="effect1_dropShadow_1031_2071" result="shape"/></filter><filter id="b" x="150" y="0" width="154" height="171" filterUnits="userSpaceOnUse" color-interpolation-filters="sRGB"><feFlood flood-opacity="0" result="BackgroundImageFix"/><feColorMatrix in="SourceAlpha" values="0 0 0 0 0 0 0 0 0 0 0 0 0 0 0 0 0 0 127 0" result="hardAlpha"/><feOffset dy="2"/><feGaussianBlur stdDeviation="3.5"/><feComposite in2="hardAlpha" operator="out"/><feColorMatrix values="0 0 0 0 0 0 0 0 0 0 0 0 0 0 0 0 0 0 0.09 0"/><feBlend in2="BackgroundImageFix" result="effect1_dropShadow_1031_2071"/><feBlend in="SourceGraphic" in2="effect1_dropShadow_1031_2071" result="shape"/></filter><filter id="c" x="300" y="0" width="154" height="171" filterUnits="userSpaceOnUse" color-interpolation-filters="sRGB"><feFlood flood-opacity="0" result="BackgroundImageFix"/><feColorMatrix in="SourceAlpha" values="0 0 0 0 0 0 0 0 0 0 0 0 0 0 0 0 0 0 127 0" result="hardAlpha"/><feOffset dy="2"/><feGaussianBlur stdDeviation="3.5"/><feComposite in2="hardAlpha" operator="out"/><feColorMatrix values="0 0 0 0 0 0 0 0 0 0 0 0 0 0 0 0 0 0 0.09 0"/><feBlend in2="BackgroundImageFix" result="effect1_dropShadow_1031_2071"/><feBlend in="SourceGraphic" in2="effect1_dropShadow_1031_2071" result="shape"/></filter><filter id="d" x="450" y="0" width="154" height="171" filterUnits="userSpaceOnUse" color-interpolation-filters="sRGB"><feFlood flood-opacity="0" result="BackgroundImageFix"/><feColorMatrix in="SourceAlpha" values="0 0 0 0 0 0 0 0 0 0 0 0 0 0 0 0 0 0 127 0" result="hardAlpha"/><feOffset dy="2"/><feGaussianBlur stdDeviation="3.5"/><feComposite in2="hardAlpha" operator="out"/><feColorMatrix values="0 0 0 0 0 0 0 0 0 0 0 0 0 0 0 0 0 0 0.09 0"/><feBlend in2="BackgroundImageFix" result="effect1_dropShadow_1031_2071"/><feBlend in="SourceGraphic" in2="effect1_dropShadow_1031_2071" result="shape"/></filter><filter id="e" x="600" y="0" width="154" height="171" filterUnits="userSpaceOnUse" color-interpolation-filters="sRGB"><feFlood flood-opacity="0" result="BackgroundImageFix"/><feColorMatrix in="SourceAlpha" values="0 0 0 0 0 0 0 0 0 0 0 0 0 0 0 0 0 0 127 0" result="hardAlpha"/><feOffset dy="2"/><feGaussianBlur stdDeviation="3.5"/><feComposite in2="hardAlpha" operator="out"/><feColorMatrix values="0 0 0 0 0 0 0 0 0 0 0 0 0 0 0 0 0 0 0.09 0"/><feBlend in2="BackgroundImageFix" result="effect1_dropShadow_1031_2071"/><feBlend in="SourceGraphic" in2="effect1_dropShadow_1031_2071" result="shape"/></filter></defs></svg>
