<svg fill="none" height="1794" viewBox="0 0 1512 1794" width="1512" xmlns="http://www.w3.org/2000/svg" xmlns:xlink="http://www.w3.org/1999/xlink"><clipPath id="a"><path d="m0 0h1512v1794h-1512z"/></clipPath><g clip-path="url(#a)"><path d="m0 0h1512v1794h-1512z" fill="#fff"/><path d="m0 0h1512v598h-1512z" fill="#fff"/><path d="m613.273 256.493c-6.807-10.017-18.333-16.653-31.449-16.653-4.317 0-8.513.716-12.427 2.051-2.063-3.5-3.276-7.559-3.276-11.979 0-13.372 10.808-24.11 24.267-24.11 3.467 0 6.526.608 9.381 1.824 1.416-2.009 2.831-4.417 4.247-7.42 5.766 3.206 16.048 11.736 17.244 26.148l-11.375 16.349z" fill="#fff"/><path d="m495.158 340.216 7.072 14.412-1.415-24.02z" fill="#000"/><path d="m472.926 345.801 75.303-128.847c6.016-13.42 19.565-22.7 35.226-22.7 7.545 0 14.682 2.026 20.596 5.876-1.427 3.039-2.855 5.47-4.282 7.496-2.855-1.216-5.914-1.823-9.381-1.823-13.459 0-24.267 10.737-24.267 24.109 0 4.421 1.213 8.479 3.276 11.979 3.913-1.335 8.11-2.051 12.426-2.051 21.005 0 37.931 17.018 37.931 37.684 0 .865-.149 1.73-.319 2.721-.029.17-.059.343-.089.521h.204c-.102.709-.255 1.418-.408 2.127s-.306 1.418-.408 2.127v.203c-14.184 71.867-102.859 70.326-116.595 69.707l.091-.302-1.415-24.02-5.573 9.549z" fill="#000"/><path d="m535.736 327.769-1.632 1.216s54.245-8.712 62.81-53.082l-8.565 2.836s-2.243 34.443-52.613 49.03z" fill="#fff"/><g fill="#000"><path d="m605.683 227.683c2.703 0 4.895-2.177 4.895-4.862 0-2.686-2.192-4.863-4.895-4.863s-4.894 2.177-4.894 4.863c0 2.685 2.191 4.862 4.894 4.862z"/><path d="m621.182 226.468-9.585 14.182h25.899z"/><path d="m500.816 330.608-45.257 77.55 33.942-10.98 12.729-42.55z"/><path d="m683.102 332.671h-15.199l-21.762-61.069h13.644l15.545 46.137 15.544-46.137h13.645l15.544 46.137 15.544-46.137h13.645l-21.244 61.069h-15.199l-14.854-41.776z"/><path d="m809.357 332.671h-12.09v-8.221c-5.181 6.04-12.09 9.06-20.898 9.06-6.564 0-11.918-1.846-16.236-5.369s-6.39-8.389-6.39-14.429c0-6.039 2.245-10.569 6.908-13.421 4.491-3.02 10.709-4.53 18.481-4.53h17.099v-2.349c0-8.053-4.664-12.248-13.99-12.248-5.872 0-11.917 2.014-18.135 6.208l-5.873-8.053c7.6-5.872 16.236-8.892 26.08-8.892 7.427 0 13.472 1.846 18.136 5.369 4.663 3.691 7.081 9.395 7.081 17.113v39.762zm-13.299-22.817v-5.201h-14.853c-9.5 0-14.336 2.852-14.336 8.724 0 3.02 1.209 5.201 3.627 6.879 2.418 1.51 5.7 2.348 9.845 2.348s7.945-1.174 11.054-3.523c3.109-2.181 4.663-5.201 4.663-9.227z"/><path d="m881.206 271.601v53.184c0 10.738-2.936 18.959-8.981 24.328-6.045 5.368-13.817 8.053-23.144 8.053-9.499 0-17.962-2.853-25.562-8.557l6.218-9.731c6.218 4.53 12.263 6.711 18.653 6.711 6.218 0 11.227-1.51 14.854-4.697 3.627-3.188 5.527-8.221 5.527-15.1v-7.885c-1.9 3.523-4.836 6.543-8.463 8.556-3.627 2.181-7.773 3.188-12.263 3.188-8.291 0-15.199-2.852-20.553-8.557-5.354-5.704-8.118-12.75-8.118-21.139s2.764-15.435 8.118-21.139c5.354-5.705 12.262-8.557 20.553-8.557 8.29 0 15.026 3.356 20.207 10.067v-9.06h12.954zm-49.051 28.186c0 5.033 1.554 9.396 4.836 12.919 3.109 3.691 7.427 5.369 12.954 5.369 5.354 0 9.844-1.678 13.126-5.201 3.282-3.524 5.009-7.886 5.009-13.087s-1.727-9.731-5.009-13.254c-3.454-3.691-7.772-5.368-13.126-5.368s-9.672 1.845-12.781 5.704c-3.455 3.523-5.009 7.885-5.009 12.918z"/><path d="m914.368 281.836v31.038c0 2.852.863 5.201 2.418 6.878 1.554 1.678 3.799 2.517 6.563 2.517 2.763 0 5.527-1.342 8.117-4.027l5.355 9.06c-4.664 4.027-9.845 6.04-15.372 6.04-5.7 0-10.363-1.846-14.335-5.704-3.973-3.859-6.045-8.892-6.045-15.268v-30.534h-7.945v-10.402h7.945v-18.959h13.299v19.126h16.58v10.402h-16.58z"/><path d="m998.307 332.671h-12.09v-8.221c-5.182 6.04-12.09 9.06-20.899 9.06-6.563 0-11.917-1.846-16.235-5.369s-6.39-8.389-6.39-14.429c0-6.039 2.245-10.569 6.908-13.421 4.491-3.02 10.709-4.53 18.481-4.53h17.099v-2.349c0-8.053-4.664-12.248-13.99-12.248-5.873 0-11.918 2.014-18.135 6.208l-5.873-8.053c7.6-5.872 16.235-8.892 26.08-8.892 7.427 0 13.472 1.846 18.135 5.369 4.664 3.691 7.082 9.395 7.082 17.113v39.762zm-13.299-22.817v-5.201h-14.854c-9.499 0-14.335 2.852-14.335 8.724 0 3.02 1.209 5.201 3.627 6.879 2.418 1.51 5.7 2.348 9.845 2.348s7.945-1.174 11.054-3.523c3.108-2.181 4.663-5.201 4.663-9.227z"/><path d="m1015.23 259.354c-1.72-1.678-2.41-3.523-2.41-5.704s.86-4.195 2.41-5.704c1.73-1.678 3.63-2.349 5.88-2.349 2.24 0 4.31.839 5.87 2.349 1.73 1.677 2.42 3.523 2.42 5.704s-.87 4.194-2.42 5.704c-1.56 1.51-3.63 2.349-5.87 2.349-2.25.168-4.15-.671-5.88-2.349zm12.44 73.317h-13.3v-61.07h13.3z"/><path d="m1055.3 332.671h-13.3v-85.229h13.3z"/></g><path d="m0 0h1512v598h-1512z" fill="#f5f3f8" transform="translate(0 598)"/><path d="m613.273 854.493c-6.807-10.017-18.333-16.653-31.449-16.653-4.317 0-8.513.716-12.427 2.051-2.063-3.5-3.276-7.559-3.276-11.979 0-13.372 10.808-24.11 24.267-24.11 3.467 0 6.526.608 9.381 1.824 1.416-2.009 2.831-4.417 4.247-7.42 5.766 3.206 16.048 11.736 17.244 26.148l-11.375 16.349z" fill="#fff"/><path d="m495.158 938.216 7.072 14.412-1.415-24.02z" fill="#000"/><path d="m472.926 943.801 75.303-128.847c6.016-13.42 19.565-22.7 35.226-22.7 7.545 0 14.682 2.026 20.596 5.876-1.427 3.039-2.855 5.47-4.282 7.496-2.855-1.216-5.914-1.823-9.381-1.823-13.459 0-24.267 10.737-24.267 24.109 0 4.421 1.213 8.479 3.276 11.979 3.913-1.335 8.11-2.051 12.426-2.051 21.005 0 37.931 17.018 37.931 37.684 0 .865-.149 1.73-.319 2.721-.029.17-.059.343-.089.521h.204c-.102.709-.255 1.418-.408 2.127s-.306 1.418-.408 2.127v.203c-14.184 71.867-102.859 70.326-116.595 69.707l.091-.302-1.415-24.02-5.573 9.549z" fill="#000"/><path d="m535.736 925.769-1.632 1.216s54.245-8.712 62.81-53.082l-8.565 2.836s-2.243 34.443-52.613 49.03z" fill="#fff"/><path d="m605.683 825.683c2.703 0 4.895-2.177 4.895-4.862 0-2.686-2.192-4.863-4.895-4.863s-4.894 2.177-4.894 4.863c0 2.685 2.191 4.862 4.894 4.862z" fill="#000"/><path d="m621.182 824.468-9.585 14.182h25.899z" fill="#000"/><path d="m500.816 928.608-45.257 77.552 33.942-10.982 12.729-42.55z" fill="#000"/><path d="m683.102 930.671h-15.199l-21.762-61.069h13.644l15.545 46.137 15.544-46.137h13.645l15.544 46.137 15.544-46.137h13.645l-21.244 61.069h-15.199l-14.854-41.776z" fill="#000"/><path d="m809.357 930.671h-12.09v-8.221c-5.181 6.04-12.09 9.06-20.898 9.06-6.564 0-11.918-1.846-16.236-5.369s-6.39-8.389-6.39-14.429c0-6.039 2.245-10.569 6.908-13.421 4.491-3.02 10.709-4.53 18.481-4.53h17.099v-2.349c0-8.053-4.664-12.248-13.99-12.248-5.872 0-11.917 2.014-18.135 6.208l-5.873-8.053c7.6-5.872 16.236-8.892 26.08-8.892 7.427 0 13.472 1.846 18.136 5.369 4.663 3.691 7.081 9.395 7.081 17.113v39.762zm-13.299-22.817v-5.201h-14.853c-9.5 0-14.336 2.852-14.336 8.724 0 3.02 1.209 5.201 3.627 6.879 2.418 1.51 5.7 2.348 9.845 2.348s7.945-1.174 11.054-3.523c3.109-2.181 4.663-5.201 4.663-9.227z" fill="#000"/><path d="m881.206 869.601v53.184c0 10.738-2.936 18.959-8.981 24.328-6.045 5.368-13.817 8.053-23.144 8.053-9.499 0-17.962-2.852-25.562-8.557l6.218-9.731c6.218 4.53 12.263 6.711 18.653 6.711 6.218 0 11.227-1.51 14.854-4.697 3.627-3.188 5.527-8.221 5.527-15.1v-7.885c-1.9 3.523-4.836 6.543-8.463 8.556-3.627 2.181-7.773 3.188-12.263 3.188-8.291 0-15.199-2.852-20.553-8.557-5.354-5.704-8.118-12.75-8.118-21.139s2.764-15.435 8.118-21.139c5.354-5.705 12.262-8.557 20.553-8.557 8.29 0 15.026 3.356 20.207 10.067v-9.06h12.954zm-49.051 28.186c0 5.033 1.554 9.396 4.836 12.919 3.109 3.691 7.427 5.369 12.954 5.369 5.354 0 9.844-1.678 13.126-5.201 3.282-3.524 5.009-7.886 5.009-13.087s-1.727-9.731-5.009-13.254c-3.454-3.691-7.772-5.368-13.126-5.368s-9.672 1.845-12.781 5.704c-3.455 3.523-5.009 7.885-5.009 12.918z" fill="#000"/><path d="m914.368 879.836v31.038c0 2.852.863 5.201 2.418 6.878 1.554 1.678 3.799 2.517 6.563 2.517 2.763 0 5.527-1.342 8.117-4.027l5.355 9.06c-4.664 4.027-9.845 6.04-15.372 6.04-5.7 0-10.363-1.846-14.335-5.704-3.973-3.859-6.045-8.892-6.045-15.268v-30.534h-7.945v-10.402h7.945v-18.959h13.299v19.126h16.58v10.402h-16.58z" fill="#000"/><path d="m998.307 930.671h-12.09v-8.221c-5.182 6.04-12.09 9.06-20.899 9.06-6.563 0-11.917-1.846-16.235-5.369s-6.39-8.389-6.39-14.429c0-6.039 2.245-10.569 6.908-13.421 4.491-3.02 10.709-4.53 18.481-4.53h17.099v-2.349c0-8.053-4.664-12.248-13.99-12.248-5.873 0-11.918 2.014-18.135 6.208l-5.873-8.053c7.6-5.872 16.235-8.892 26.08-8.892 7.427 0 13.472 1.846 18.135 5.369 4.664 3.691 7.082 9.395 7.082 17.113v39.762zm-13.299-22.817v-5.201h-14.854c-9.499 0-14.335 2.852-14.335 8.724 0 3.02 1.209 5.201 3.627 6.879 2.418 1.51 5.7 2.348 9.845 2.348s7.945-1.174 11.054-3.523c3.108-2.181 4.663-5.201 4.663-9.227z" fill="#000"/><path d="m1015.23 857.354c-1.72-1.678-2.41-3.523-2.41-5.704s.86-4.195 2.41-5.704c1.73-1.678 3.63-2.349 5.88-2.349 2.24 0 4.31.839 5.87 2.349 1.73 1.677 2.42 3.523 2.42 5.704s-.87 4.194-2.42 5.704c-1.56 1.51-3.63 2.349-5.87 2.349-2.25.168-4.15-.671-5.88-2.349zm12.44 73.317h-13.3v-61.07h13.3z" fill="#000"/><path d="m1055.3 930.671h-13.3v-85.229h13.3z" fill="#000"/><path d="m0 0h1512v598h-1512z" fill="#262626" transform="translate(0 1196)"/><path d="m613.273 1452.49c-6.807-10.01-18.333-16.65-31.449-16.65-4.317 0-8.513.72-12.427 2.05-2.063-3.5-3.276-7.56-3.276-11.98 0-13.37 10.808-24.11 24.267-24.11 3.467 0 6.526.61 9.381 1.83 1.416-2.01 2.831-4.42 4.247-7.42 5.766 3.2 16.048 11.73 17.244 26.14l-11.375 16.35z" fill="#fff"/><path d="m495.158 1536.22 7.072 14.41-1.415-24.02z" fill="#000"/><path d="m472.926 1541.8 75.303-128.85c6.016-13.42 19.565-22.7 35.226-22.7 7.545 0 14.682 2.03 20.596 5.88-1.427 3.04-2.855 5.47-4.282 7.5-2.855-1.22-5.914-1.83-9.381-1.83-13.459 0-24.267 10.74-24.267 24.11 0 4.42 1.213 8.48 3.276 11.98 3.913-1.33 8.11-2.05 12.426-2.05 21.005 0 37.931 17.02 37.931 37.68 0 .87-.149 1.73-.319 2.73-.029.16-.059.34-.089.52h.204c-.102.7-.255 1.41-.408 2.12s-.306 1.42-.408 2.13v.2c-14.184 71.87-102.859 70.33-116.595 69.71l.091-.3-1.415-24.02-5.573 9.55z" fill="#000"/><path d="m535.736 1523.77-1.632 1.21s54.245-8.71 62.81-53.08l-8.565 2.84s-2.243 34.44-52.613 49.03z" fill="#fff"/><path d="m605.683 1423.68c2.703 0 4.895-2.17 4.895-4.86 0-2.68-2.192-4.86-4.895-4.86s-4.894 2.18-4.894 4.86c0 2.69 2.191 4.86 4.894 4.86z" fill="#000"/><path d="m621.182 1422.47-9.585 14.18h25.899z" fill="#000"/><path d="m500.816 1526.61-45.257 77.55 33.942-10.98 12.729-42.55z" fill="#000"/><path d="m683.102 1528.67h-15.199l-21.762-61.07h13.644l15.545 46.14 15.544-46.14h13.645l15.544 46.14 15.544-46.14h13.645l-21.244 61.07h-15.199l-14.854-41.77z" fill="#fff"/><path d="m809.357 1528.67h-12.09v-8.22c-5.181 6.04-12.09 9.06-20.898 9.06-6.564 0-11.918-1.85-16.236-5.37s-6.39-8.39-6.39-14.43 2.245-10.57 6.908-13.42c4.491-3.02 10.709-4.53 18.481-4.53h17.099v-2.35c0-8.05-4.664-12.25-13.99-12.25-5.872 0-11.917 2.02-18.135 6.21l-5.873-8.05c7.6-5.87 16.236-8.89 26.08-8.89 7.427 0 13.472 1.84 18.136 5.37 4.663 3.69 7.081 9.39 7.081 17.11v39.76zm-13.299-22.82v-5.2h-14.853c-9.5 0-14.336 2.85-14.336 8.73 0 3.02 1.209 5.2 3.627 6.88 2.418 1.51 5.7 2.34 9.845 2.34s7.945-1.17 11.054-3.52c3.109-2.18 4.663-5.2 4.663-9.23z" fill="#fff"/><path d="m881.206 1467.6v53.19c0 10.73-2.936 18.95-8.981 24.32s-13.817 8.06-23.144 8.06c-9.499 0-17.962-2.86-25.562-8.56l6.218-9.73c6.218 4.53 12.263 6.71 18.653 6.71 6.218 0 11.227-1.51 14.854-4.7s5.527-8.22 5.527-15.1v-7.88c-1.9 3.52-4.836 6.54-8.463 8.55-3.627 2.18-7.773 3.19-12.263 3.19-8.291 0-15.199-2.85-20.553-8.56-5.354-5.7-8.118-12.75-8.118-21.14 0-8.38 2.764-15.43 8.118-21.13 5.354-5.71 12.262-8.56 20.553-8.56 8.29 0 15.026 3.35 20.207 10.07v-9.06h12.954zm-49.051 28.19c0 5.03 1.554 9.39 4.836 12.92 3.109 3.69 7.427 5.36 12.954 5.36 5.354 0 9.844-1.67 13.126-5.2 3.282-3.52 5.009-7.88 5.009-13.08s-1.727-9.73-5.009-13.26c-3.454-3.69-7.772-5.37-13.126-5.37s-9.672 1.85-12.781 5.71c-3.455 3.52-5.009 7.88-5.009 12.92z" fill="#fff"/><path d="m914.368 1477.84v31.03c0 2.86.863 5.2 2.418 6.88 1.554 1.68 3.799 2.52 6.563 2.52 2.763 0 5.527-1.34 8.117-4.03l5.355 9.06c-4.664 4.03-9.845 6.04-15.372 6.04-5.7 0-10.363-1.84-14.335-5.7-3.973-3.86-6.045-8.89-6.045-15.27v-30.53h-7.945v-10.41h7.945v-18.95h13.299v19.12h16.58v10.4h-16.58z" fill="#fff"/><path d="m998.307 1528.67h-12.09v-8.22c-5.182 6.04-12.09 9.06-20.899 9.06-6.563 0-11.917-1.85-16.235-5.37s-6.39-8.39-6.39-14.43 2.245-10.57 6.908-13.42c4.491-3.02 10.709-4.53 18.481-4.53h17.099v-2.35c0-8.05-4.664-12.25-13.99-12.25-5.873 0-11.918 2.02-18.135 6.21l-5.873-8.05c7.6-5.87 16.235-8.89 26.08-8.89 7.427 0 13.472 1.84 18.135 5.37 4.664 3.69 7.082 9.39 7.082 17.11v39.76zm-13.299-22.82v-5.2h-14.854c-9.499 0-14.335 2.85-14.335 8.73 0 3.02 1.209 5.2 3.627 6.88 2.418 1.51 5.7 2.34 9.845 2.34s7.945-1.17 11.054-3.52c3.108-2.18 4.663-5.2 4.663-9.23z" fill="#fff"/><path d="m1015.23 1455.35c-1.72-1.67-2.41-3.52-2.41-5.7s.86-4.19 2.41-5.7c1.73-1.68 3.63-2.35 5.88-2.35 2.24 0 4.31.84 5.87 2.35 1.73 1.67 2.42 3.52 2.42 5.7s-.87 4.19-2.42 5.7c-1.56 1.51-3.63 2.35-5.87 2.35-2.25.17-4.15-.67-5.88-2.35zm12.44 73.32h-13.3v-61.07h13.3z" fill="#fff"/><path d="m1055.3 1528.67h-13.3v-85.23h13.3z" fill="#fff"/></g></svg>