<svg fill="none" height="274" viewBox="0 0 225 274" width="225" xmlns="http://www.w3.org/2000/svg"><path d="m194.897 79.4924c-8.392-12.7936-22.602-21.2698-38.773-21.2698-5.322 0-10.496.9148-15.32 2.6201-2.543-4.47-4.039-9.6539-4.039-15.2997 0-17.0786 13.325-30.7933 29.918-30.7933 4.274 0 8.046.7763 11.565 2.3289 1.746-2.566 3.491-5.6409 5.236-9.47693 7.108 4.09523 19.786 14.98993 21.26 33.39723l-14.024 20.8815z" fill="#fff"/><path d="m49.2769 186.425 8.718 18.407-1.7436-30.679z" fill="#000"/><path d="m21.8667 193.558 92.8393-164.5648c7.417-17.1408 24.12-28.9932 43.428-28.9932 9.303 0 18.102 2.58766 25.393 7.50425-1.759 3.88155-3.519 6.98675-5.279 9.57445-3.52-1.5526-7.291-2.3289-11.565-2.3289-16.594 0-29.919 13.7147-29.919 30.7933 0 5.6458 1.496 10.8297 4.039 15.2997 4.825-1.7053 9.998-2.6201 15.32-2.6201 25.896 0 46.764 21.7365 46.764 48.1313 0 1.104-.184 2.209-.394 3.475-.036.217-.073.438-.109.665h.251c-.125.906-.314 1.811-.503 2.717-.188.906-.377 1.811-.502 2.717v.259c-17.487 91.789-126.8126 89.821-143.7468 89.031l.1117-.386-1.7436-30.679-6.871 12.197z" fill="#000"/><path d="m99.3039 170.528-2.0114 1.552s66.8765-11.127 77.4365-67.797l-10.56 3.623s-2.765 43.991-64.8651 62.622z" fill="#fff"/><g fill="#000"><path d="m185.54 42.6965c3.332 0 6.034-2.7805 6.034-6.2104s-2.702-6.2104-6.034-6.2104c-3.333 0-6.034 2.7805-6.034 6.2104s2.701 6.2104 6.034 6.2104z"/><path d="m204.648 41.1443-11.817 18.1137h31.93z"/><path d="m56.2518 174.153-55.795257 99.049 41.846457-14.025 15.6924-54.345z"/></g></svg>