<svg fill="none" height="598" viewBox="0 0 1512 598" width="1512" xmlns="http://www.w3.org/2000/svg"><path d="m0 0h1512v598h-1512z" fill="#2e1f5e"/><ellipse cx="581.992" cy="244.587" fill="#fff" opacity=".1" rx="84.507" ry="82.2099"/><path d="m613.273 256.493c-6.807-10.017-18.333-16.653-31.449-16.653-4.317 0-8.513.716-12.427 2.051-2.062-3.5-3.276-7.558-3.276-11.979 0-13.372 10.808-24.11 24.268-24.11 3.466 0 6.525.608 9.38 1.824 1.416-2.009 2.831-4.417 4.247-7.42 5.766 3.206 16.049 11.736 17.245 26.148l-11.375 16.35z" fill="#fff"/><path d="m495.158 340.216 7.071 14.412-1.414-24.02z" fill="#000"/><path d="m472.925 345.801 75.304-128.847c6.016-13.42 19.564-22.7 35.225-22.7 7.546 0 14.683 2.026 20.597 5.876-1.427 3.039-2.855 5.47-4.282 7.496-2.855-1.216-5.914-1.823-9.381-1.823-13.459 0-24.268 10.737-24.268 24.109 0 4.421 1.214 8.479 3.277 11.979 3.913-1.335 8.109-2.051 12.426-2.051 21.005 0 37.931 17.018 37.931 37.684 0 .865-.149 1.73-.32 2.721-.029.17-.058.343-.088.521h.204c-.102.709-.255 1.418-.408 2.127s-.306 1.418-.408 2.127v.203c-14.184 71.867-102.86 70.326-116.595 69.707l.09-.302-1.414-24.02-5.573 9.549z" fill="#000"/><path d="m535.736 327.769-1.632 1.216s54.245-8.712 62.81-53.082l-8.565 2.836s-2.243 34.443-52.613 49.03z" fill="#fff"/><path d="m605.683 227.683c2.703 0 4.895-2.177 4.895-4.862 0-2.686-2.192-4.863-4.895-4.863s-4.894 2.177-4.894 4.863c0 2.685 2.191 4.862 4.894 4.862z" fill="#000"/><path d="m621.182 226.468-9.585 14.182h25.899z" fill="#000"/><path d="m500.816 330.608-45.257 77.55 33.942-10.98 12.729-42.55z" fill="#000"/><g fill="#fff"><path d="m683.102 332.671h-15.199l-21.762-61.07h13.644l15.544 46.138 15.545-46.138h13.644l15.545 46.138 15.544-46.138h13.645l-21.244 61.07h-15.199l-14.854-41.776z"/><path d="m809.357 332.67h-12.09v-8.22c-5.182 6.039-12.09 9.059-20.899 9.059-6.563 0-11.917-1.845-16.235-5.368-4.318-3.524-6.39-8.389-6.39-14.429s2.245-10.57 6.908-13.422c4.491-3.02 10.709-4.53 18.481-4.53h17.099v-2.348c0-8.053-4.664-12.248-13.99-12.248-5.873 0-11.918 2.014-18.135 6.208l-5.873-8.053c7.6-5.872 16.236-8.892 26.08-8.892 7.427 0 13.472 1.845 18.135 5.368 4.664 3.691 7.082 9.396 7.082 17.113v39.762zm-13.299-22.817v-5.201h-14.854c-9.499 0-14.335 2.853-14.335 8.725 0 3.02 1.209 5.201 3.627 6.878 2.418 1.51 5.7 2.349 9.845 2.349s7.945-1.174 11.054-3.523c3.108-2.181 4.663-5.201 4.663-9.228z"/><path d="m881.206 271.601v53.184c0 10.738-2.936 18.959-8.981 24.327-6.045 5.369-13.817 8.054-23.144 8.054-9.499 0-17.962-2.853-25.562-8.557l6.218-9.731c6.218 4.53 12.263 6.711 18.653 6.711 6.218 0 11.227-1.51 14.854-4.697 3.627-3.188 5.527-8.221 5.527-15.1v-7.885c-1.9 3.523-4.836 6.543-8.463 8.556-3.627 2.181-7.773 3.188-12.263 3.188-8.291 0-15.199-2.852-20.553-8.557-5.355-5.704-8.118-12.75-8.118-21.139s2.763-15.435 8.118-21.139c5.354-5.705 12.262-8.557 20.553-8.557 8.29 0 15.026 3.356 20.207 10.067v-9.06h12.954zm-49.051 28.186c0 5.033 1.554 9.395 4.836 12.919 3.109 3.691 7.427 5.368 12.954 5.368 5.354 0 9.844-1.677 13.126-5.201 3.282-3.523 5.009-7.885 5.009-13.086s-1.727-9.731-5.009-13.254c-3.454-3.691-7.772-5.369-13.126-5.369-5.355 0-9.672 1.846-12.781 5.705-3.455 3.523-5.009 7.885-5.009 12.918z"/><path d="m914.367 281.835v31.038c0 2.852.864 5.201 2.418 6.879 1.555 1.678 3.8 2.517 6.564 2.517 2.763 0 5.526-1.343 8.117-4.027l5.354 9.06c-4.663 4.026-9.844 6.04-15.371 6.04-5.7 0-10.363-1.846-14.336-5.705-3.972-3.858-6.045-8.892-6.045-15.267v-30.535h-7.944v-10.402h7.944v-18.958h13.299v19.126h16.581v10.402h-16.581z"/><path d="m998.307 332.67h-12.09v-8.22c-5.182 6.039-12.09 9.059-20.899 9.059-6.563 0-11.917-1.845-16.235-5.368-4.318-3.524-6.391-8.389-6.391-14.429s2.246-10.57 6.909-13.422c4.491-3.02 10.708-4.53 18.481-4.53h17.098v-2.348c0-8.053-4.663-12.248-13.99-12.248-5.872 0-11.917 2.014-18.135 6.208l-5.872-8.053c7.599-5.872 16.235-8.892 26.08-8.892 7.427 0 13.472 1.845 18.135 5.368 4.663 3.691 7.081 9.396 7.081 17.113v39.762zm-13.299-22.817v-5.201h-14.854c-9.499 0-14.335 2.853-14.335 8.725 0 3.02 1.209 5.201 3.627 6.878 2.418 1.51 5.699 2.349 9.845 2.349 4.145 0 7.944-1.174 11.053-3.523 3.109-2.181 4.664-5.201 4.664-9.228z"/><path d="m1015.23 259.354c-1.72-1.678-2.42-3.523-2.42-5.704s.87-4.195 2.42-5.705c1.73-1.677 3.63-2.348 5.88-2.348 2.24 0 4.31.838 5.87 2.348 1.72 1.678 2.42 3.524 2.42 5.705s-.87 4.194-2.42 5.704c-1.56 1.51-3.63 2.349-5.87 2.349-2.25.168-4.15-.671-5.88-2.349zm12.44 73.317h-13.3v-61.07h13.3z"/><path d="m1055.3 332.671h-13.3v-85.229h13.3z"/></g></svg>