<svg fill="none" height="320" viewBox="0 0 320 320" width="320" xmlns="http://www.w3.org/2000/svg"><path d="m0 0h320v320h-320z" fill="#fff"/><path d="m225.265 32.9162s-37.892 4.4235-35.768 10.1367c5.335 14.3542 12.951-6.2649-.571 10.816-9.837 12.3807-9.7 25.3072-3.384 42.103 48.421-4.0796 58.277 23.0461 58.277 23.0461l-7.498-31.483 13.712-20.3314c-1.809-22.4893-20.865-33.4611-24.768-34.2874z" fill="#fff"/><g fill="#2e1f5e"><path d="m191.679 102.618 3.933-6.8026c-7.128-5.543-12.045-14.1093-12.045-24.1873 0-16.6288 13.029-29.9822 29.253-29.9822 4.178 0 7.866.7558 11.307 2.2675 1.721-2.5195 3.441-5.5429 5.162-9.3222-7.129-4.787-15.732-7.3065-24.827-7.3065-25.565 0-46.46 21.1638-46.46 47.6187 0 26.2026 20.649 47.6186 46.46 47.6186 7.62 0 11.061-2.015 12.045-5.291z"/><path d="m249.938 67.3451-11.553 17.6366h31.218z"/><path d="m231.256 68.8564c3.258 0 5.899-2.7072 5.899-6.0468 0-3.3395-2.641-6.0468-5.899-6.0468-3.259 0-5.9 2.7073-5.9 6.0468 0 3.3396 2.641 6.0468 5.9 6.0468z"/></g><path d="m207.105 110.631c-4.952 9.011-15.077 27.595-15.958 29.847l-69.885 67.579 75.388-12.39 33.017-63.636z" fill="#fff" stroke="#2e1f5e"/><path d="m248.217 130.837c0-25.699-20.403-46.8633-45.722-46.8633-9.587 0-18.682 3.0234-26.056 8.3144l-12.291-40.5641-92.9186 164.02 27.0398-7.055-47.4425 84.404 40.068-13.605 15.2403-52.406c15.487.756 123.646 3.275 140.853-86.671v-.252c.246-1.764.737-3.528.983-5.291h-.246c.246-1.512.492-2.772.492-4.031zm-103.243 63.995 1.967-1.512c60.716-18.14 63.42-60.972 63.42-60.972l10.325-3.527c-10.325 55.177-75.712 66.011-75.712 66.011z" fill="#2e1f5e"/></svg>