<svg fill="none" height="249" viewBox="0 0 601 249" width="601" xmlns="http://www.w3.org/2000/svg"><path d="m158.273 96.4928c-6.807-10.0168-18.333-16.6532-31.449-16.6532-4.317 0-8.513.7162-12.427 2.0513-2.063-3.4997-3.276-7.5585-3.276-11.9788 0-13.3718 10.808-24.1097 24.267-24.1097 3.467 0 6.526.6078 9.381 1.8234 1.416-2.0091 2.831-4.4165 4.247-7.42 5.766 3.2064 16.048 11.7364 17.244 26.1484l-11.375 16.3492z" fill="#fff"/><path d="m40.1584 180.216 7.0713 14.412-1.4143-24.02z" fill="#000"/><path d="m17.9255 185.801 75.3037-128.8466c6.0161-13.4204 19.5648-22.7002 35.2258-22.7002 7.545 0 14.682 2.026 20.596 5.8754-1.427 3.0391-2.855 5.4703-4.282 7.4963-2.855-1.2156-5.914-1.8234-9.381-1.8234-13.459 0-24.267 10.738-24.267 24.1097 0 4.4204 1.213 8.4791 3.276 11.9789 3.913-1.3352 8.11-2.0514 12.426-2.0514 21.005 0 37.931 17.0187 37.931 37.6843 0 .865-.149 1.73-.319 2.721-.029.17-.059.343-.089.521h.204c-.102.709-.255 1.418-.408 2.127s-.306 1.418-.408 2.127v.203c-14.184 71.867-102.8593 70.326-116.5949 69.707l.0906-.302-1.4143-24.02-5.5732 9.549z" fill="#000"/><path d="m80.7357 167.769-1.6315 1.216s54.2448-8.712 62.8098-53.082l-8.565 2.836s-2.243 34.443-52.6133 49.03z" fill="#fff"/><g fill="#000"><path d="m150.683 67.6834c2.703 0 4.895-2.177 4.895-4.8625 0-2.6854-2.192-4.8624-4.895-4.8624s-4.894 2.177-4.894 4.8624c0 2.6855 2.191 4.8625 4.894 4.8625z"/><path d="m166.182 66.468-9.585 14.1822h25.899z"/><path d="m45.8155 170.608-45.256422 77.55 33.942322-10.98 12.7284-42.55z"/><path d="m228.102 172.671h-15.199l-21.762-61.069h13.644l15.545 46.137 15.544-46.137h13.645l15.544 46.137 15.544-46.137h13.645l-21.244 61.069h-15.199l-14.854-41.776z"/><path d="m354.357 172.671h-12.09v-8.221c-5.181 6.04-12.09 9.06-20.898 9.06-6.564 0-11.918-1.846-16.236-5.369s-6.39-8.389-6.39-14.429c0-6.039 2.245-10.569 6.908-13.421 4.491-3.02 10.709-4.53 18.481-4.53h17.099v-2.349c0-8.053-4.664-12.248-13.99-12.248-5.872 0-11.917 2.014-18.135 6.208l-5.873-8.053c7.6-5.872 16.236-8.892 26.08-8.892 7.427 0 13.472 1.846 18.136 5.369 4.663 3.691 7.081 9.395 7.081 17.113v39.762zm-13.299-22.817v-5.201h-14.853c-9.5 0-14.336 2.852-14.336 8.724 0 3.02 1.209 5.201 3.627 6.879 2.418 1.51 5.7 2.348 9.845 2.348s7.945-1.174 11.054-3.523c3.109-2.181 4.663-5.201 4.663-9.227z"/><path d="m426.206 111.601v53.184c0 10.738-2.936 18.959-8.981 24.328-6.045 5.368-13.817 8.053-23.144 8.053-9.499 0-17.962-2.852-25.562-8.557l6.218-9.731c6.218 4.53 12.263 6.711 18.653 6.711 6.218 0 11.227-1.51 14.854-4.697 3.627-3.188 5.527-8.221 5.527-15.1v-7.885c-1.9 3.523-4.836 6.543-8.463 8.556-3.627 2.181-7.773 3.188-12.263 3.188-8.291 0-15.199-2.852-20.553-8.557-5.354-5.704-8.118-12.75-8.118-21.139s2.764-15.435 8.118-21.139c5.354-5.705 12.262-8.557 20.553-8.557 8.29 0 15.026 3.356 20.207 10.067v-9.06h12.954zm-49.051 28.186c0 5.033 1.554 9.396 4.836 12.919 3.109 3.691 7.427 5.369 12.954 5.369 5.354 0 9.844-1.678 13.126-5.201 3.282-3.524 5.009-7.886 5.009-13.087s-1.727-9.731-5.009-13.254c-3.454-3.691-7.772-5.368-13.126-5.368s-9.672 1.845-12.781 5.704c-3.455 3.523-5.009 7.885-5.009 12.918z"/><path d="m459.368 121.836v31.038c0 2.852.863 5.201 2.418 6.878 1.554 1.678 3.799 2.517 6.563 2.517 2.763 0 5.527-1.342 8.117-4.027l5.355 9.06c-4.664 4.027-9.845 6.04-15.372 6.04-5.7 0-10.363-1.846-14.335-5.704-3.973-3.859-6.045-8.892-6.045-15.268v-30.534h-7.945v-10.402h7.945v-18.9587h13.299v19.1257h16.58v10.402h-16.58z"/><path d="m543.307 172.671h-12.09v-8.221c-5.182 6.04-12.09 9.06-20.899 9.06-6.563 0-11.917-1.846-16.235-5.369s-6.39-8.389-6.39-14.429c0-6.039 2.245-10.569 6.908-13.421 4.491-3.02 10.709-4.53 18.481-4.53h17.099v-2.349c0-8.053-4.664-12.248-13.99-12.248-5.873 0-11.918 2.014-18.135 6.208l-5.873-8.053c7.6-5.872 16.235-8.892 26.08-8.892 7.427 0 13.472 1.846 18.135 5.369 4.664 3.691 7.082 9.395 7.082 17.113v39.762zm-13.299-22.817v-5.201h-14.854c-9.499 0-14.335 2.852-14.335 8.724 0 3.02 1.209 5.201 3.627 6.879 2.418 1.51 5.7 2.348 9.845 2.348s7.945-1.174 11.054-3.523c3.108-2.181 4.663-5.201 4.663-9.227z"/><path d="m560.233 99.3541c-1.727-1.6778-2.418-3.5233-2.418-5.7043 0-2.1811.864-4.1943 2.418-5.7043 1.727-1.6777 3.627-2.3488 5.873-2.3488 2.245 0 4.318.8388 5.872 2.3488 1.727 1.6777 2.418 3.5232 2.418 5.7043 0 2.181-.864 4.1943-2.418 5.7043-1.554 1.5099-3.627 2.3489-5.872 2.3489-2.246.168-4.146-.671-5.873-2.3489zm12.436 73.3169h-13.299v-61.07h13.299z"/><path d="m600.303 172.671h-13.299v-85.2289h13.299z"/></g></svg>