<svg viewBox="0 0 190 132" xmlns="http://www.w3.org/2000/svg" xmlns:xlink="http://www.w3.org/1999/xlink"><defs><path id="a" d="m89.58 26.597c-7.704-15.534-23.78-26.222-42.367-26.222s-34.661 10.688-42.363 26.222c-3.104 6.26-4.85 13.305-4.85 20.757 0 6.875 1.484 13.404 4.15 19.288 12.926 1.555 27.562 2.432 43.064 2.432 15.503 0 30.138-.877 43.064-2.432 2.667-5.884 4.152-12.413 4.152-19.288 0-7.452-1.747-14.497-4.85-20.757"/><mask id="b" fill="#fff"><use fill="#fff" fill-rule="evenodd" xlink:href="#a"/></mask></defs><g fill="none" fill-rule="evenodd"><g fill="#dfdfdf"><path d="m49.467 127.165h4.465v-40.655h-4.465"/><path d="m55.836 127.153c0 2.677-2.18 4.847-4.87 4.847s-4.87-2.17-4.87-4.847c0-2.676 2.18-4.846 4.87-4.846s4.87 2.17 4.87 4.846m79.074.012h4.466v-40.655h-4.465"/><path d="m142.404 127.153c0 2.677-2.18 4.847-4.87 4.847s-4.87-2.17-4.87-4.847c0-2.676 2.18-4.846 4.87-4.846s4.87 2.17 4.87 4.846"/></g><path d="m94.975 86.13-94.975-15.28s2.768 30.56 94.975 30.56c92.208 0 94.976-30.56 94.976-30.56l-94.975 15.28" fill="#d23c2b"/><path d="m189.95 69.77c0 12.38-42.52 22.415-94.975 22.415-52.452 0-94.975-10.035-94.975-22.415 0-12.376 42.523-22.41 94.975-22.41 52.454 0 94.974 10.035 94.974 22.413" fill="#de4d33"/><path d="m189.95 69.77c0 12.38-42.52 22.415-94.975 22.415-52.452 0-94.975-10.035-94.975-22.415 0-12.376 42.523-22.41 94.975-22.41 52.454 0 94.974 10.035 94.974 22.413" fill="#de4d33"/><g transform="translate(48.343)"><use fill="#9fd6e4" xlink:href="#a"/><g mask="url(#b)"><g transform="translate(-25.858 10.068)"><path d="m66.328 58.76h.987c6.65-.016 13.134-.195 19.39-.518-.003-.033-1.522-14.294-11.057-29.093-2.158 2.536-5.382 4.146-8.983 4.146-6.5 0-11.77-5.243-11.77-11.712 0-3.97 1.986-7.476 5.022-9.593-6.19-4.746-13.78-8.84-23.1-11.615-3.817 3.047-7.147 6.67-9.857 10.74-1.033 1.55-1.98 3.16-2.826 4.828l-.015.03c-.01.017-.017.033-.025.05l-.036.07-.006.01-.09.18c-3.104 6.26-4.852 13.306-4.852 20.76 0 .757.02 1.51.054 2.26.288 6.045 1.725 11.79 4.098 17.026 12.926 1.554 27.562 2.43 43.064 2.43" fill="#8dbec9" opacity=".293"/><g fill-rule="nonzero"><path d="m85.573 11.186v5.07s-10.397-3.38-17.124 2.755c-4.894 4.447-5.302 9.427-3.06 16.095 22.018 0 25.483 10.76 25.483 10.76l-2.242-12.36 6.932-7.38c0-8.714-8.256-14.494-9.99-14.94z" fill="#fff" opacity=".821"/><ellipse cx="86.568" cy="23.492" fill="#000" opacity=".821" rx="2.249" ry="2.237"/><path d="m90.537 45.566s-3.35-14.862-25.274-10.833c-2.232-6.715-1.826-11.64 3.045-16.204 6.598-6.18 16.95-2.777 16.95-2.777v-5.102c-3.653-1.432-7.104-1.7-10.96-1.7-14.11 0-21.925 9.31-25.274 15.577l-39.686 64.37 11.165-1.88-20.503 34.915 14.31-2.238 10.964-27.484c31.06 0 70.846-9.85 65.264-46.644zm14.019-12.006-8.79-7.83-6.95 7.83" fill="#000" opacity=".821"/><path d="m30.355 83.898s1.006-.177 2.818-.53c1.812-.356 4.328-.887 7.347-1.596 1.51-.355 3.12-.798 4.83-1.33 1.712-.53 3.523-1.063 5.234-1.77 1.812-.622 3.624-1.42 5.435-2.305 1.81-.886 3.522-1.86 5.132-3.013.402-.266.805-.53 1.208-.886l1.207-.886c.705-.62 1.51-1.24 2.215-1.95.704-.62 1.308-1.328 1.912-2.037l.906-1.063.402-.532.403-.532c.2-.354.503-.708.704-1.063.2-.354.402-.71.704-1.063.1-.177.2-.355.302-.532.1-.177.2-.354.302-.53.2-.356.402-.71.503-1.065l.907-2.126c.2-.71.503-1.42.704-2.04.202-.62.303-1.328.504-1.86.1-.62.202-1.152.302-1.772.1-.532.2-1.063.2-1.506.102-.443.102-.886.203-1.33.1-1.594.1-2.48.1-2.48l1.61.088s-.1.975-.202 2.57c-.1.443-.1.886-.2 1.33-.102.53-.102 1.062-.303 1.594-.1.53-.302 1.152-.402 1.772-.202.62-.403 1.24-.604 1.95-.203.708-.504 1.328-.806 2.126-.302.71-.604 1.417-1.007 2.215-.2.354-.402.71-.604 1.063-.1.177-.2.355-.302.532l-.3.53c-.202.356-.504.71-.705 1.153-.302.355-.503.71-.805 1.064-.1.176-.302.353-.403.53l-.402.532-.906 1.063c-.706.71-1.31 1.418-2.115 2.038-.704.71-1.51 1.24-2.314 1.95l-1.207.885c-.403.266-.805.532-1.31.798-1.71 1.063-3.52 2.038-5.333 2.924-1.81.797-3.723 1.595-5.535 2.215s-3.623 1.152-5.334 1.595c-1.71.443-3.32.886-4.93 1.152-3.02.62-5.637 1.152-7.448 1.417-1.61.53-2.617.708-2.617.708z" fill="#fff" opacity=".821"/></g></g></g></g><path d="m75.325 68.613h.002z" fill="#9fd6e4"/><path d="m95.425 69.054h-.174.175c15.502 0 30.138-.877 43.064-2.432 2.372-5.235 3.81-10.982 4.097-17.027-.288 6.045-1.725 11.792-4.098 17.027-12.927 1.555-27.563 2.432-43.065 2.432m-.23 0h-.114zm-.198 0h-.085.086m-.18 0h-.07zm-.192 0h-.034zm-.178 0h-.008z" fill="#c7462f"/><path d="m137.33 26.445-.09-.18zm-.095-.19-.036-.072c.01.023.024.047.035.072m-.06-.12-.015-.03.016.03" fill="#1d2533"/><path d="m31.976 65.48c0 1.978-3.635 3.58-8.118 3.58-4.484 0-8.118-1.602-8.118-3.58 0-1.977 3.634-3.58 8.118-3.58 4.483 0 8.118 1.603 8.118 3.58m138.284 0c0 1.978-3.634 3.58-8.118 3.58s-8.118-1.602-8.118-3.58c0-1.977 3.634-3.58 8.118-3.58s8.118 1.603 8.118 3.58m-111.303 11.186c0 1.977-3.634 3.58-8.117 3.58s-8.118-1.603-8.118-3.58c0-1.976 3.635-3.58 8.118-3.58s8.117 1.604 8.117 3.58m86.568 0c0 1.977-3.634 3.58-8.117 3.58-4.484 0-8.118-1.603-8.118-3.58 0-1.976 3.634-3.58 8.118-3.58 4.483 0 8.117 1.604 8.117 3.58m-41.595 3.356c0 1.977-3.636 3.58-8.12 3.58-4.483 0-8.118-1.603-8.118-3.58 0-1.976 3.635-3.58 8.12-3.58 4.482 0 8.117 1.604 8.117 3.58" fill="#fffffe"/></g></svg>